<svg width="500" height="381" viewBox="0 0 500 381" fill="none" xmlns="http://www.w3.org/2000/svg">
<path d="M500 327.9H0V328.15H500V327.9Z" fill="#EBEBEB"/>
<path d="M449.9 343.99H416.78V344.24H449.9V343.99Z" fill="#EBEBEB"/>
<path d="M331.22 346.71H322.53V346.96H331.22V346.71Z" fill="#EBEBEB"/>
<path d="M415.78 334.71H396.59V334.96H415.78V334.71Z" fill="#EBEBEB"/>
<path d="M95.65 336.39H52.46V336.64H95.65V336.39Z" fill="#EBEBEB"/>
<path d="M110.89 336.39H104.56V336.64H110.89V336.39Z" fill="#EBEBEB"/>
<path d="M225.15 340.61H131.47V340.86H225.15V340.61Z" fill="#EBEBEB"/>
<path d="M237 283.3H43.91C42.3973 283.297 40.9475 282.695 39.8789 281.624C38.8102 280.554 38.21 279.103 38.21 277.59V6.16C38.2232 4.65603 38.8292 3.21798 39.8964 2.15822C40.9637 1.09846 42.406 0.502576 43.91 0.5H237C238.514 0.5 239.967 1.10159 241.038 2.17242C242.108 3.24325 242.71 4.69561 242.71 6.21V277.59C242.71 279.104 242.108 280.557 241.038 281.628C239.967 282.698 238.514 283.3 237 283.3ZM43.91 0.700001C42.4636 0.70265 41.0774 1.27907 40.0557 2.30273C39.0339 3.32639 38.46 4.71365 38.46 6.16V277.59C38.46 279.036 39.0339 280.424 40.0557 281.447C41.0774 282.471 42.4636 283.047 43.91 283.05H237C238.447 283.047 239.835 282.471 240.858 281.448C241.881 280.424 242.457 279.037 242.46 277.59V6.16C242.457 4.71273 241.881 3.32549 240.858 2.30212C239.835 1.27874 238.447 0.702644 237 0.700001H43.91Z" fill="#EBEBEB"/>
<path d="M453.31 283.3H260.21C258.696 283.297 257.246 282.695 256.175 281.625C255.105 280.554 254.503 279.104 254.5 277.59V6.16C254.516 4.65511 255.124 3.21708 256.193 2.15759C257.262 1.09811 258.705 0.502548 260.21 0.5H453.31C454.812 0.505204 456.252 1.10225 457.317 2.16173C458.382 3.22121 458.987 4.65775 459 6.16V277.59C459 279.101 458.401 280.55 457.335 281.621C456.268 282.691 454.821 283.295 453.31 283.3ZM260.21 0.700001C258.763 0.702644 257.375 1.27874 256.352 2.30212C255.329 3.32549 254.753 4.71273 254.75 6.16V277.59C254.753 279.037 255.329 280.424 256.352 281.448C257.375 282.471 258.763 283.047 260.21 283.05H453.31C454.757 283.047 456.145 282.471 457.168 281.448C458.191 280.424 458.767 279.037 458.77 277.59V6.16C458.767 4.71273 458.191 3.32549 457.168 2.30212C456.145 1.27874 454.757 0.702644 453.31 0.700001H260.21Z" fill="#EBEBEB"/>
<path d="M305.84 39.95H295.96V30.07H289.66V39.95H279.78V46.24H289.66V56.13H295.96V46.24H305.84V39.95Z" fill="#16A085"/>
<path d="M92.63 99.23H82.75V89.34H76.45V99.23H66.57V105.52H76.45V115.4H82.75V105.52H92.63V99.23Z" fill="#16A085"/>
<path d="M79.6 228.78H69.72V218.9H63.42V228.78H53.54V235.07H63.42V244.96H69.72V235.07H79.6V228.78Z" fill="#16A085"/>
<path d="M359.4 66.82H354.5V61.91H351.37V66.82H346.46V69.94H351.37V74.85H354.5V69.94H359.4V66.82Z" fill="#16A085"/>
<path d="M430.72 134.1H425.81V129.19H422.69V134.1H417.78V137.22H422.69V142.13H425.81V137.22H430.72V134.1Z" fill="#16A085"/>
<path d="M446.28 237.9H441.37V232.99H438.25V237.9H433.34V241.02H438.25V245.93H441.37V241.02H446.28V237.9Z" fill="#16A085"/>
<path d="M119.73 35.1H114.83V30.19H111.7V35.1H106.79V38.23H111.7V43.14H114.83V38.23H119.73V35.1Z" fill="#16A085"/>
<path d="M89 298.72H84.09V293.81H80.96V298.72H76.06V301.85H80.96V306.75H84.09V301.85H89V298.72Z" fill="#16A085"/>
<path d="M175.19 286.64H167.85V279.3H163.18V286.64H155.84V291.31H163.18V298.66H167.85V291.31H175.19V286.64Z" fill="#16A085"/>
<path d="M463.25 182.6H455.91V175.26H451.23V182.6H443.89V187.27H451.23V194.62H455.91V187.27H463.25V182.6Z" fill="#16A085"/>
<path d="M205.07 57.89H197.73V50.55H193.06V57.89H185.72V62.57H193.06V69.91H197.73V62.57H205.07V57.89Z" fill="#16A085"/>
<path d="M415.19 53.15H407.85V45.81H403.17V53.15H395.83V57.83H403.17V65.17H407.85V57.83H415.19V53.15Z" fill="#16A085"/>
<path d="M290.93 309.85H284.9V303.82H281.06V309.85H275.04V313.69H281.06V319.71H284.9V313.69H290.93V309.85Z" fill="#16A085"/>
<path d="M249.249 226.928C245.572 226.928 245.296 225.265 245.296 225.081C245.631 220.396 245.082 215.693 243.675 211.186C242.529 209.462 241.086 207.927 239.406 206.641C238.074 205.582 236.927 204.335 236.006 202.946L235.809 202.576H235.374C227.745 200.027 224.147 196.516 224.029 191.49V190.825L223.357 190.567C217.783 188.238 212.328 183.952 214.225 169.984V168.801H212.921C190.666 168.801 188.729 167.471 180.941 159.822L180.269 159.156C178.241 157.643 176.703 155.632 175.831 153.347C174.958 151.062 174.784 148.595 175.328 146.223C175.551 144.492 175.551 142.743 175.328 141.013C174.459 133.622 177.265 129.114 185.29 125.012C188.884 122.921 192.201 120.441 195.172 117.621C200.53 112.432 206.994 108.353 214.146 105.648C221.99 103.598 230.117 102.651 238.259 102.84C249.209 102.84 276.524 104.318 292.929 118.249C318.821 140.2 329.257 160.376 324.79 179.887C322.062 191.934 316.212 200.581 307.95 204.941C306.044 205.92 304.012 206.665 301.902 207.158L301.151 207.343V208.119C301.105 209.418 300.763 210.692 300.15 211.858C299.537 213.024 298.665 214.055 297.593 214.882C293.956 217.219 289.586 218.351 285.181 218.097C281.98 218.064 278.789 217.743 275.654 217.136H275.299H274.943C272.942 218.076 270.739 218.581 268.499 218.614C266.523 218.541 264.589 218.05 262.844 217.18C261.098 216.31 259.586 215.082 258.419 213.588L257.471 212.554L256.917 211.999L256.048 212.221C255.314 212.468 254.676 212.912 254.211 213.497C253.747 214.082 253.478 214.782 253.439 215.51V225.007C253.439 225.007 252.964 226.928 249.249 226.928Z" fill="white"/>
<path d="M224.068 190.825C223.673 198.881 231.974 201.911 240.591 204.091C247.498 205.317 253.771 208.658 258.419 213.588C260.224 216.125 262.997 217.921 266.172 218.608C269.347 219.295 272.683 218.821 275.496 217.284C289.094 219.87 301.348 217.727 301.388 207.565C295.032 208.758 288.442 208.206 282.414 205.976C260.277 198.585 267.432 198.844 242.173 194.89C236.036 194.214 229.985 192.976 224.107 191.195" fill="#16A085"/>
<path opacity="0.35" d="M224.068 190.825C223.673 198.881 231.974 201.911 240.591 204.091C247.498 205.317 253.771 208.658 258.419 213.588C260.224 216.125 262.997 217.921 266.172 218.608C269.347 219.295 272.683 218.821 275.496 217.284C289.094 219.87 301.348 217.727 301.388 207.565C295.032 208.758 288.442 208.206 282.414 205.976C260.277 198.585 267.432 198.844 242.173 194.89C236.036 194.214 229.985 192.976 224.107 191.195" fill="white"/>
<path d="M282.374 205.902C284.669 206.696 287.038 207.289 289.45 207.676C293.642 208.433 297.964 208.273 302.078 207.209C306.193 206.145 309.989 204.205 313.168 201.542C316.503 198.567 319.188 195.016 321.074 191.084C322.157 188.844 323.069 186.535 323.801 184.174C324.302 183.091 324.685 181.965 324.948 180.811C325.185 179.111 325.382 177.448 325.62 175.748C325.778 173.879 325.778 172.001 325.62 170.132C325.551 165.813 324.737 161.533 323.208 157.457C321.983 154.353 320.204 151.47 318.662 148.477C317.121 145.484 316.291 143.267 314.709 140.754C312.483 136.76 309.48 133.189 305.855 130.222C306.586 131.786 307.065 133.442 307.278 135.137C307.558 136.384 307.391 137.683 306.803 138.832C306.5 139.365 306.001 139.777 305.399 139.995C304.796 140.212 304.13 140.219 303.523 140.015C305.173 141.218 307.05 142.12 309.057 142.675C309.554 142.767 310.026 142.956 310.44 143.23C310.836 143.525 310.44 143.71 310.44 144.117C310.836 144.117 310.915 144.634 310.875 145.003C310.677 149.807 312.852 154.611 312.14 159.378C312.127 159.611 312.065 159.838 311.956 160.048C311.848 160.257 311.695 160.444 311.507 160.598C311.26 160.651 311.003 160.651 310.756 160.598C310.287 160.532 309.85 160.334 309.504 160.031C309.158 159.727 308.919 159.332 308.819 158.898C308.91 160.7 309.283 162.481 309.926 164.182C310.643 165.595 311.518 166.932 312.535 168.173C313.556 169.409 314.32 170.813 314.789 172.312C315.068 173.009 315.127 173.766 314.958 174.493C314.79 175.22 314.402 175.887 313.84 176.414C312.851 177.263 311.428 177.855 310.915 179.148C312.237 178.679 313.66 178.514 315.065 178.668C316.467 178.829 317.758 179.459 318.702 180.441C318.939 180.7 319.176 181.144 318.939 181.439C318.778 181.556 318.588 181.633 318.386 181.661C316.898 181.587 315.407 181.587 313.919 181.661C312.695 182.106 311.627 182.861 310.836 183.841C309.412 185.319 309.057 187.204 307.673 188.793C306.253 190.438 304.401 191.711 302.297 192.488C298.369 193.42 294.229 193.201 290.438 191.86C290.011 191.755 289.615 191.561 289.279 191.292C288.944 191.023 288.678 190.687 288.501 190.308C288.424 189.839 288.5 189.359 288.718 188.931C288.937 188.502 289.288 188.145 289.727 187.906C290.517 187.352 291.505 186.982 292.257 186.391C285.141 186.391 277.749 184.913 270.752 185.763C268.736 186.021 266.799 186.465 264.704 186.539C262.67 186.713 260.633 186.231 258.933 185.171C257.708 184.358 256.838 183.139 255.692 182.252C252.565 180.615 249.128 179.56 245.572 179.148C245.14 179.083 244.73 178.926 244.373 178.689C244.017 178.452 243.724 178.141 243.517 177.781C243.2 177.042 243.951 175.97 244.781 176.266C243.494 176.591 242.148 176.667 240.828 176.487C240.394 176.46 239.973 176.333 239.603 176.118C239.246 175.835 238.991 175.457 238.871 175.034C238.75 174.611 238.772 174.164 238.931 173.753C239.251 172.791 239.829 171.923 240.612 171.23C241.394 170.538 242.353 170.045 243.398 169.799C245.494 169.317 247.673 169.242 249.802 169.577C254.6 170.224 259.472 170.224 264.27 169.577C266.627 169.227 268.925 168.594 271.108 167.693C273.164 166.843 274.666 165.254 276.563 164.33C269.132 168.025 260.198 167.434 251.936 166.178C248.448 165.454 244.867 165.205 241.303 165.438C239.615 165.569 237.973 166.021 236.48 166.769C235.729 167.175 233.357 168.543 232.883 166.769C232.863 166.568 232.887 166.366 232.955 166.175C233.023 165.984 233.133 165.809 233.278 165.66C233.973 164.749 234.934 164.043 236.045 163.628C237.402 163.324 238.725 162.903 239.998 162.371C240.987 161.78 241.698 160.745 242.726 160.228C243.99 159.753 245.322 159.454 246.679 159.341C248.057 159.053 249.31 158.383 250.276 157.42C250.667 157.114 250.964 156.717 251.138 156.269C251.311 155.821 251.355 155.339 251.264 154.87C249.993 155.283 248.657 155.495 247.311 155.498C246.384 155.449 245.467 155.288 244.584 155.018C243.48 154.945 242.381 155.218 241.461 155.794C239.914 156.841 238.128 157.537 236.243 157.826C233.78 158.182 231.263 157.682 229.167 156.422C229.523 159.637 225.965 162.261 222.526 162.408C219.557 162.366 216.658 161.561 214.146 160.08C214.386 160.427 214.514 160.831 214.514 161.244C214.514 161.657 214.386 162.062 214.146 162.408C213.669 162.925 213.039 163.298 212.336 163.482C211.633 163.666 210.888 163.653 210.193 163.443C208.846 163.037 207.526 162.556 206.24 162.002C203.346 161.372 200.394 161.001 197.425 160.893C195.936 160.804 194.502 160.333 193.282 159.531C192.061 158.729 191.101 157.628 190.507 156.348C190.329 155.768 190.329 155.154 190.507 154.574C191.219 152.801 193.788 152.764 195.804 152.579C199.219 152.251 202.372 150.718 204.619 148.292C201.897 149.435 198.947 150.027 195.962 150.029C194.678 150.135 193.396 149.793 192.365 149.068C192.124 148.877 191.93 148.64 191.797 148.372C191.664 148.104 191.595 147.812 191.595 147.516C191.595 147.221 191.664 146.929 191.797 146.661C191.93 146.393 192.124 146.155 192.365 145.964C188.412 147.627 182.087 148.44 181.099 143.008C181.04 141.925 181.04 140.839 181.099 139.756C181.099 137.576 179.874 135.322 180.743 133.289C181.544 131.864 182.647 130.607 183.985 129.594C185.528 128.142 186.597 126.309 187.068 124.31L184.262 125.973C182.957 126.896 181.653 127.783 180.309 128.781C178.967 129.772 177.886 131.036 177.146 132.476C176.004 135.083 175.596 137.92 175.96 140.717C176.751 147.368 172.403 150.694 180.704 158.824C189.005 166.954 189.796 168.432 214.699 168.432C211.142 190.604 224.779 191.416 242.37 194.299C267.392 198.807 260.238 198.585 282.374 205.902Z" fill="#16A085"/>
<path opacity="0.6" d="M282.374 205.902C284.669 206.696 287.038 207.289 289.45 207.676C293.642 208.433 297.964 208.273 302.078 207.209C306.193 206.145 309.989 204.205 313.168 201.542C316.503 198.567 319.188 195.016 321.074 191.084C322.157 188.844 323.069 186.535 323.801 184.174C324.302 183.091 324.685 181.965 324.948 180.811C325.185 179.111 325.382 177.448 325.62 175.748C325.778 173.879 325.778 172.001 325.62 170.132C325.551 165.813 324.737 161.533 323.208 157.457C321.983 154.353 320.204 151.47 318.662 148.477C317.121 145.484 316.291 143.267 314.709 140.754C312.483 136.76 309.48 133.189 305.855 130.222C306.586 131.786 307.065 133.442 307.278 135.137C307.558 136.384 307.391 137.683 306.803 138.832C306.5 139.365 306.001 139.777 305.399 139.995C304.796 140.212 304.13 140.219 303.523 140.015C305.173 141.218 307.05 142.12 309.057 142.675C309.554 142.767 310.026 142.956 310.44 143.23C310.836 143.525 310.44 143.71 310.44 144.117C310.836 144.117 310.915 144.634 310.875 145.003C310.677 149.807 312.852 154.611 312.14 159.378C312.127 159.611 312.065 159.838 311.956 160.048C311.848 160.257 311.695 160.444 311.507 160.598C311.26 160.651 311.003 160.651 310.756 160.598C310.287 160.532 309.85 160.334 309.504 160.031C309.158 159.727 308.919 159.332 308.819 158.898C308.91 160.7 309.283 162.481 309.926 164.182C310.643 165.595 311.518 166.932 312.535 168.173C313.556 169.409 314.32 170.813 314.789 172.312C315.068 173.009 315.127 173.766 314.958 174.493C314.79 175.22 314.402 175.887 313.84 176.414C312.851 177.263 311.428 177.855 310.915 179.148C312.237 178.679 313.66 178.514 315.065 178.668C316.467 178.829 317.758 179.459 318.702 180.441C318.939 180.7 319.176 181.144 318.939 181.439C318.778 181.556 318.588 181.633 318.386 181.661C316.898 181.587 315.407 181.587 313.919 181.661C312.695 182.106 311.627 182.861 310.836 183.841C309.412 185.319 309.057 187.204 307.673 188.793C306.253 190.438 304.401 191.711 302.297 192.488C298.369 193.42 294.229 193.201 290.438 191.86C290.011 191.755 289.615 191.561 289.279 191.292C288.944 191.023 288.678 190.687 288.501 190.308C288.424 189.839 288.5 189.359 288.718 188.931C288.937 188.502 289.288 188.145 289.727 187.906C290.517 187.352 291.505 186.982 292.257 186.391C285.141 186.391 277.749 184.913 270.752 185.763C268.736 186.021 266.799 186.465 264.704 186.539C262.67 186.713 260.633 186.231 258.933 185.171C257.708 184.358 256.838 183.139 255.692 182.252C252.565 180.615 249.128 179.56 245.572 179.148C245.14 179.083 244.73 178.926 244.373 178.689C244.017 178.452 243.724 178.141 243.517 177.781C243.2 177.042 243.951 175.97 244.781 176.266C243.494 176.591 242.148 176.667 240.828 176.487C240.394 176.46 239.973 176.333 239.603 176.118C239.246 175.835 238.991 175.457 238.871 175.034C238.75 174.611 238.772 174.164 238.931 173.753C239.251 172.791 239.829 171.923 240.612 171.23C241.394 170.538 242.353 170.045 243.398 169.799C245.494 169.317 247.673 169.242 249.802 169.577C254.6 170.224 259.472 170.224 264.27 169.577C266.627 169.227 268.925 168.594 271.108 167.693C273.164 166.843 274.666 165.254 276.563 164.33C269.132 168.025 260.198 167.434 251.936 166.178C248.448 165.454 244.867 165.205 241.303 165.438C239.615 165.569 237.973 166.021 236.48 166.769C235.729 167.175 233.357 168.543 232.883 166.769C232.863 166.568 232.887 166.366 232.955 166.175C233.023 165.984 233.133 165.809 233.278 165.66C233.973 164.749 234.934 164.043 236.045 163.628C237.402 163.324 238.725 162.903 239.998 162.371C240.987 161.78 241.698 160.745 242.726 160.228C243.99 159.753 245.322 159.454 246.679 159.341C248.057 159.053 249.31 158.383 250.276 157.42C250.667 157.114 250.964 156.717 251.138 156.269C251.311 155.821 251.355 155.339 251.264 154.87C249.993 155.283 248.657 155.495 247.311 155.498C246.384 155.449 245.467 155.288 244.584 155.018C243.48 154.945 242.381 155.218 241.461 155.794C239.914 156.841 238.128 157.537 236.243 157.826C233.78 158.182 231.263 157.682 229.167 156.422C229.523 159.637 225.965 162.261 222.526 162.408C219.557 162.366 216.658 161.561 214.146 160.08C214.386 160.427 214.514 160.831 214.514 161.244C214.514 161.657 214.386 162.062 214.146 162.408C213.669 162.925 213.039 163.298 212.336 163.482C211.633 163.666 210.888 163.653 210.193 163.443C208.846 163.037 207.526 162.556 206.24 162.002C203.346 161.372 200.394 161.001 197.425 160.893C195.936 160.804 194.502 160.333 193.282 159.531C192.061 158.729 191.101 157.628 190.507 156.348C190.329 155.768 190.329 155.154 190.507 154.574C191.219 152.801 193.788 152.764 195.804 152.579C199.219 152.251 202.372 150.718 204.619 148.292C201.897 149.435 198.947 150.027 195.962 150.029C194.678 150.135 193.396 149.793 192.365 149.068C192.124 148.877 191.93 148.64 191.797 148.372C191.664 148.104 191.595 147.812 191.595 147.516C191.595 147.221 191.664 146.929 191.797 146.661C191.93 146.393 192.124 146.155 192.365 145.964C188.412 147.627 182.087 148.44 181.099 143.008C181.04 141.925 181.04 140.839 181.099 139.756C181.099 137.576 179.874 135.322 180.743 133.289C181.544 131.864 182.647 130.607 183.985 129.594C185.528 128.142 186.597 126.309 187.068 124.31L184.262 125.973C182.957 126.896 181.653 127.783 180.309 128.781C178.967 129.772 177.886 131.036 177.146 132.476C176.004 135.083 175.596 137.92 175.96 140.717C176.751 147.368 172.403 150.694 180.704 158.824C189.005 166.954 189.796 168.432 214.699 168.432C211.142 190.604 224.779 191.416 242.37 194.299C267.392 198.807 260.238 198.585 282.374 205.902Z" fill="white"/>
<path d="M234.702 202.207C234.702 205.385 240.908 208.23 242.845 211.667C244.121 216.057 244.628 220.612 244.347 225.155C244.347 225.155 244.347 228 249.446 228C254.545 228 254.664 225.155 254.664 225.155V215.658C254.664 213.477 257.866 212.923 257.866 212.923C255.651 210.14 252.594 208.041 249.09 206.9C242.608 204.683 234.702 202.207 234.702 202.207Z" fill="#455A64"/>
<path d="M268.697 219.981C266.485 219.931 264.316 219.401 262.36 218.433C260.405 217.464 258.718 216.084 257.431 214.401C253.715 210.041 249.051 207.565 240.275 205.163C233.12 203.241 222.368 200.322 222.843 190.751C222.856 190.569 222.917 190.393 223.02 190.238C223.124 190.084 223.266 189.955 223.436 189.864C223.604 189.774 223.795 189.726 223.989 189.726C224.183 189.726 224.374 189.774 224.542 189.864C229.384 191.462 234.392 192.577 239.485 193.19L242.331 193.634C259.842 196.516 261.898 197.329 268.776 199.916C271.78 201.098 275.891 202.65 282.77 204.941C288.584 207.092 294.938 207.631 301.072 206.493C301.25 206.454 301.435 206.453 301.613 206.492C301.792 206.53 301.958 206.606 302.1 206.715C302.247 206.818 302.366 206.952 302.449 207.106C302.531 207.26 302.574 207.43 302.574 207.602C302.658 209.197 302.344 210.788 301.658 212.25C300.973 213.712 299.933 215.005 298.621 216.027C294.036 219.501 285.932 220.388 275.733 218.503C273.541 219.496 271.133 220.002 268.697 219.981ZM225.214 192.488C225.965 198.438 233.12 200.876 240.789 202.983C250.118 205.496 255.099 208.23 259.17 212.96C260.818 215.274 263.361 216.901 266.265 217.501C269.169 218.1 272.208 217.625 274.745 216.175C275.003 216.101 275.278 216.101 275.536 216.175C285.062 218.023 292.81 217.284 296.803 214.253C297.661 213.612 298.375 212.818 298.905 211.917C299.434 211.017 299.767 210.028 299.886 209.006C293.79 209.808 287.577 209.16 281.821 207.122C274.824 204.793 270.713 203.205 267.669 202.059C260.989 199.472 259.012 198.696 241.777 195.888L238.931 195.444C234.335 194.798 229.801 193.81 225.373 192.488H225.214Z" fill="#455A64"/>
<path d="M205.212 149.696C206.122 149.696 206.991 149.696 207.9 149.696C209.461 149.57 210.979 149.155 212.367 148.477C214.096 147.7 215.611 146.562 216.795 145.151C217.941 143.821 218.494 141.899 219.917 140.791C220.966 140.204 222.097 139.756 223.277 139.46C225.305 138.721 227.053 137.435 228.298 135.765C229.443 136.422 230.722 136.85 232.053 137.022L232.765 137.613C233.25 138.073 233.663 138.595 233.99 139.165C234.592 140.354 235.081 141.591 235.453 142.86C235.723 144.137 236.288 145.344 237.107 146.397C237.926 147.45 238.98 148.323 240.196 148.957C246.205 151.47 249.209 143.71 249.09 139.424C249.035 137.775 248.715 136.143 248.142 134.583C247.73 133.123 247.062 131.736 246.165 130.481C246.421 129.261 246.421 128.006 246.165 126.786C247.57 127.32 249.12 127.424 250.592 127.081C252.59 126.599 254.306 125.405 255.376 123.755C256.475 122.117 256.884 120.154 256.522 118.249C256.287 117.202 255.887 116.194 255.336 115.256C254.585 113.926 253.478 112.374 254.032 110.822C254.032 110.526 253.755 110.083 253.597 110.489C253.362 111.362 253.318 112.27 253.467 113.159C253.617 114.048 253.957 114.899 254.466 115.663C255.183 117.386 255.183 119.298 254.466 121.021C253.83 122.586 252.627 123.893 251.067 124.716C250.249 125.154 249.322 125.384 248.379 125.381C247.365 125.336 246.377 125.07 245.493 124.605C244.745 122.771 243.586 121.108 242.094 119.728C240.75 118.397 238.654 117.436 238.694 115.367C238.718 114.601 238.906 113.847 239.247 113.15C239.391 112.764 239.577 112.392 239.801 112.041C240.598 110.971 241.731 110.158 243.042 109.713C244.347 109.233 245.691 108.974 246.995 108.531H246.323C244.78 108.428 243.232 108.629 241.777 109.122C240.671 109.492 239.287 110.231 238.615 109.122C238.486 108.844 238.341 108.572 238.18 108.309C238.08 108.118 237.93 107.953 237.745 107.829C237.651 107.773 237.541 107.743 237.429 107.743C237.317 107.743 237.207 107.773 237.113 107.829L237.508 108.679C237.681 109.009 237.813 109.356 237.903 109.713C237.962 110.167 237.962 110.626 237.903 111.081C237.872 112.511 237.619 113.93 237.152 115.293C237.104 115.502 236.995 115.694 236.836 115.847C236.283 116.217 235.294 115.293 234.899 115.035L232.646 113.704C231.104 112.854 229.523 112.041 227.942 111.302C224.542 109.713 220.906 108.383 217.546 110.748C215.648 112.115 213.355 111.894 211.221 112.743C208.975 113.708 207.19 115.417 206.212 117.539C205.234 119.661 205.131 122.047 205.924 124.236C203.335 123.581 200.607 123.581 198.018 124.236C197.002 124.636 196.086 125.231 195.331 125.982C194.575 126.733 193.996 127.624 193.63 128.596C192.925 131.245 192.831 134.004 193.354 136.689C193.354 137.539 195.132 137.872 195.014 136.689C194.504 134.162 194.613 131.559 195.33 129.077C195.705 128.032 196.365 127.097 197.246 126.364C198.126 125.632 199.197 125.127 200.35 124.901C202.557 124.55 204.817 124.625 206.991 125.123C209.115 125.455 211.092 126.353 212.683 127.709C211.209 125.803 209.022 124.485 206.556 124.014C206.22 122.767 206.175 121.466 206.426 120.201C206.676 118.935 207.216 117.736 208.008 116.683C208.799 115.631 209.825 114.751 211.014 114.103C212.203 113.455 213.527 113.054 214.897 112.928C216.33 112.698 217.685 112.153 218.85 111.339C219.59 110.829 220.454 110.498 221.365 110.375C222.275 110.253 223.204 110.343 224.068 110.637C227.655 111.805 231.038 113.461 234.109 115.552C234.779 115.949 235.426 116.381 236.045 116.845C236.638 117.326 237.35 117.584 237.943 117.991C238.536 118.397 239.01 118.878 239.524 119.284C240.619 120.16 241.601 121.152 242.449 122.24C243.322 123.271 243.953 124.461 244.3 125.735C244.648 127.008 244.704 128.336 244.465 129.631C244.088 131.124 243.224 132.471 241.991 133.484C240.759 134.497 239.22 135.126 237.587 135.285C234.737 136.108 231.66 135.897 228.97 134.694C228.426 134.305 227.979 133.81 227.659 133.244C227.339 132.679 227.154 132.055 227.117 131.416C227.079 130.777 227.19 130.138 227.442 129.543C227.693 128.948 228.08 128.41 228.574 127.968C231.025 125.529 234.82 127.672 237.627 126.047C238.299 125.64 237.31 124.642 236.718 124.79C233.516 125.64 229.958 124.31 227.349 126.564L227.112 125.862C226.916 125.317 226.678 124.786 226.4 124.273C225.81 123.181 225.094 122.152 224.266 121.206C222.676 119.328 220.553 117.906 218.139 117.104C217.822 117.104 217.783 117.621 218.139 117.769C220.288 118.863 222.162 120.375 223.633 122.203C224.245 123.031 224.774 123.909 225.214 124.827C225.453 125.305 225.651 125.799 225.807 126.305C225.988 127.544 225.88 128.804 225.491 130.001C225.26 131.264 225.482 132.563 226.124 133.696C226.285 133.968 226.47 134.228 226.677 134.472C225.468 135.771 224.023 136.86 222.408 137.687C220.602 138.5 218.592 138.832 216.597 138.648C214.355 138.414 212.236 137.566 210.509 136.209C208.77 134.841 207.387 133.105 205.805 131.626C205.45 131.294 205.252 131.885 205.41 132.144C206.728 134.303 208.425 136.239 210.43 137.872C211.903 138.871 213.529 139.656 215.253 140.2C215.676 140.369 216.025 140.669 216.241 141.049C216.439 141.53 216.241 141.825 215.885 142.269C215.555 142.841 215.171 143.385 214.739 143.895C213.885 144.902 212.84 145.754 211.656 146.408C210.944 146.814 209.679 147.59 208.77 147.184C207.861 146.777 207.98 146.075 207.584 145.558C206.834 144.667 205.924 143.904 204.896 143.304C202.887 142.121 200.721 141.189 198.453 140.532C196.277 139.855 194.02 139.433 191.733 139.276C190.616 139.164 189.49 139.164 188.373 139.276C187.187 139.276 186.04 139.719 184.894 139.904C184.696 139.904 184.696 140.384 184.894 140.384C187.113 140.28 189.337 140.379 191.535 140.68C193.491 140.882 195.424 141.253 197.306 141.789C199.199 142.372 201.026 143.127 202.762 144.043C203.783 144.531 204.705 145.181 205.489 145.964C205.661 146.171 205.783 146.41 205.844 146.666C205.906 146.922 205.906 147.187 205.845 147.442C205.568 148.108 204.461 147.886 203.829 147.997C202.681 148.243 201.628 148.78 200.785 149.549C199.735 150.463 198.479 151.145 197.109 151.544C195.579 152.003 193.965 152.166 192.365 152.025C191.219 152.025 189.756 150.805 190.112 149.586C190.468 148.641 191.065 147.791 191.851 147.11C192.985 145.937 194.321 144.95 195.804 144.19C195.804 144.19 195.804 143.71 195.804 143.784C194.725 143.935 193.682 144.26 192.721 144.745C191.931 145.191 191.2 145.724 190.547 146.334C189.124 147.664 188.333 149.327 186.396 150.029C184.346 150.822 182.043 150.822 179.992 150.029C179.154 149.686 178.42 149.153 177.858 148.477C177.304 147.775 177.146 146.925 176.632 146.26C176.119 145.595 175.921 145.669 175.684 146.038C174.775 147.516 176.553 149.733 177.739 150.583C179.435 151.849 181.586 152.458 183.748 152.283C185.403 152.206 187.015 151.763 188.452 150.99C188.537 151.249 188.657 151.497 188.808 151.729C189.26 152.322 189.851 152.81 190.536 153.156C191.222 153.501 191.982 153.696 192.761 153.724C194.561 153.891 196.379 153.715 198.104 153.206C199.83 152.698 201.428 151.869 202.801 150.768C203.448 150.16 204.3 149.781 205.212 149.696ZM244.03 134.139C244.769 133.458 245.348 132.64 245.73 131.737C245.73 131.996 245.73 132.218 246.046 132.439C246.402 133.289 246.679 134.176 246.956 135.1C247.398 136.704 247.584 138.36 247.509 140.015C247.416 141.479 247.013 142.91 246.323 144.227C245.689 145.624 244.558 146.773 243.121 147.479C242.401 147.682 241.63 147.666 240.92 147.434C240.209 147.202 239.596 146.765 239.168 146.186C238.224 144.919 237.528 143.505 237.113 142.01C236.652 140.243 235.834 138.575 234.701 137.095C238.086 137.167 241.39 136.12 244.03 134.139ZM257.154 146.334C257.154 146.555 257.431 146.334 257.391 146.075C256.614 143.637 256.542 141.05 257.18 138.577C257.819 136.105 259.147 133.834 261.028 131.996C262.477 130.45 263.639 128.689 264.467 126.786C264.931 125.859 265.114 124.832 264.995 123.815C264.877 122.799 264.462 121.832 263.795 121.021C263.598 120.836 263.202 120.799 263.163 121.021C263.163 122.019 263.519 122.979 263.44 123.977C263.347 125.277 262.942 126.54 262.254 127.672C260.91 129.927 258.933 131.737 257.55 133.954C256.315 135.8 255.628 137.919 255.558 140.094C255.489 142.269 256.04 144.423 257.154 146.334ZM264.388 106.979C264.887 107.093 265.376 107.241 265.851 107.422C266.351 107.689 266.783 108.055 267.116 108.494C267.826 109.465 268.323 110.557 268.578 111.709C269.141 114.162 269.004 116.711 268.183 119.099C268.183 119.321 268.183 119.099 268.183 119.099C269.198 118.097 269.788 116.783 269.843 115.404C270.115 113.954 270.047 112.467 269.646 111.044C269.316 109.681 268.638 108.413 267.669 107.348C266.879 106.461 265.179 105.279 263.716 105.796C263.479 106.092 263.993 106.831 264.388 106.979ZM278.975 122.13C279.91 121.04 280.597 119.782 280.991 118.434C281.346 117.132 281.466 115.783 281.346 114.443C281.327 113.104 280.841 111.807 279.963 110.748C279.133 110.083 278.145 111.007 279.014 111.709C279.356 112.126 279.562 112.626 279.607 113.15C279.757 113.694 279.85 114.251 279.884 114.813C280.001 116.052 279.894 117.302 279.568 118.508C279.215 119.452 278.751 120.357 278.184 121.206C277.915 121.706 277.569 122.167 277.156 122.573C276.663 122.983 276.134 123.354 275.575 123.682C275.575 123.682 275.575 124.014 275.575 124.051C277.038 124.273 278.184 122.979 278.975 122.13ZM291.189 125.825C292.671 126.643 293.876 127.834 294.668 129.261C296.324 132.398 298.296 135.38 300.558 138.167C302.835 140.556 305.736 142.352 308.978 143.378L310.322 143.821C309.666 146.953 309.912 150.192 311.033 153.207C312.106 156.424 314.219 159.252 317.081 161.3C317.437 161.521 317.477 160.893 317.279 160.709C315.035 158.627 313.319 156.102 312.259 153.318C311.197 150.455 310.992 147.376 311.666 144.412C314.293 145.101 316.706 146.368 318.702 148.108C318.9 148.108 318.979 147.849 318.9 147.701C316.58 144.962 313.4 142.972 309.808 142.01C305.888 140.8 302.519 138.392 300.242 135.174C298.483 131.995 296.39 128.987 293.996 126.194C292.638 124.935 290.9 124.097 289.015 123.792C286.959 123.641 284.891 123.867 282.928 124.458C282.928 124.458 282.928 124.716 282.928 124.716C285.738 124.43 288.579 124.812 291.189 125.825ZM320.046 168.653C312.535 167.582 309.689 160.376 307.831 154.426C306.369 149.733 302.969 143.341 296.526 144.449C295.359 144.628 294.285 145.152 293.46 145.943C292.635 146.734 292.102 147.752 291.94 148.847C292.19 151.694 293.606 154.342 295.893 156.237C298.201 158.532 299.894 161.306 300.835 164.33C301.23 165.882 300.835 167.471 301.151 169.06C301.348 169.838 301.717 170.568 302.235 171.205C302.752 171.841 303.406 172.369 304.155 172.755C304.683 173.112 305.323 173.294 305.973 173.273C306.211 173.273 306.487 173.273 306.527 172.94C306.566 172.607 306.211 172.46 305.934 172.349C305.055 171.972 304.322 171.351 303.834 170.571C303.346 169.791 303.126 168.889 303.206 167.988C303.205 165.883 302.762 163.799 301.902 161.854C300.782 159.587 299.318 157.484 297.554 155.609C295.893 153.724 293.087 151.101 294.194 148.218C294.723 147.231 295.636 146.471 296.746 146.093C297.856 145.715 299.078 145.748 300.163 146.186C301.582 146.819 302.83 147.742 303.815 148.887C304.801 150.032 305.498 151.369 305.855 152.801C307.08 156.015 308.266 159.267 309.531 162.519C310.269 163.91 311.274 165.163 312.496 166.215C314.314 167.951 317.516 170.39 320.402 169.91C320.758 169.503 320.402 168.69 320.046 168.653ZM313.958 177.818C311.129 177.766 308.382 178.702 306.25 180.441C304.056 182.395 301.549 184.016 298.819 185.245C296.867 185.764 294.832 185.952 292.81 185.8C293.374 185.502 293.915 185.168 294.431 184.802C295.946 183.801 297.063 182.358 297.607 180.699C298.151 179.041 298.09 177.26 297.435 175.638C297.003 174.878 296.408 174.211 295.687 173.677C294.966 173.142 294.134 172.753 293.245 172.533C292.431 172.34 291.594 172.241 290.755 172.238C290.282 172.183 289.804 172.183 289.331 172.238C290.301 171.358 291.127 170.349 291.782 169.245C292.628 168.004 292.998 166.531 292.833 165.068C292.668 163.605 291.977 162.238 290.873 161.189C290.064 160.465 289.085 159.927 288.014 159.62C286.944 159.312 285.811 159.242 284.706 159.415C285.062 158.972 285.418 158.528 285.734 158.048C286.598 157.017 287.17 155.8 287.398 154.509C287.626 153.217 287.502 151.892 287.039 150.657C286.625 150.065 286.081 149.563 285.443 149.184C284.804 148.805 284.086 148.558 283.337 148.46C282.588 148.362 281.826 148.415 281.1 148.615C280.375 148.816 279.704 149.159 279.133 149.623C277.235 150.879 276.01 152.837 273.994 153.946C273.605 154.156 273.194 154.329 272.769 154.463C272.246 152.345 272.426 150.128 273.282 148.108C273.52 147.627 273.836 147.221 274.034 146.74C274.138 146.385 274.327 146.057 274.587 145.779C275.228 145.218 275.98 144.779 276.801 144.486C277.914 144.148 278.892 143.504 279.607 142.638C280.161 141.789 280.279 141.049 281.267 140.532C282.48 139.919 283.843 139.614 285.22 139.645C286.566 139.651 287.901 139.863 289.173 140.273C289.157 140.082 289.095 139.897 288.993 139.731C288.89 139.564 288.749 139.422 288.58 139.313C287.374 138.694 285.998 138.424 284.627 138.537C283.274 138.599 281.94 138.861 280.674 139.313C280.398 139.313 280.042 139.313 279.923 139.313C279.805 139.313 279.923 139.313 279.923 139.091C279.884 138.513 279.884 137.933 279.923 137.354C279.978 136.778 280.139 136.216 280.398 135.691C280.703 135.199 281.126 134.78 281.634 134.466C282.141 134.152 282.719 133.952 283.323 133.881C284.185 133.733 285.069 133.733 285.932 133.881C286.65 134.01 287.388 134.01 288.106 133.881C288.139 133.856 288.165 133.826 288.184 133.79C288.202 133.755 288.212 133.716 288.212 133.677C288.212 133.638 288.202 133.6 288.184 133.564C288.165 133.529 288.139 133.498 288.106 133.474C287.324 133.023 286.448 132.733 285.537 132.624C284.593 132.495 283.634 132.495 282.691 132.624C281.872 132.707 281.086 132.972 280.398 133.396C279.711 133.821 279.141 134.392 278.738 135.063C278.096 136.524 277.904 138.124 278.184 139.682C278.184 140.828 278.461 142.195 277.354 143.008C276.247 143.821 275.377 143.525 274.468 144.08C273.255 144.822 272.295 145.873 271.701 147.11C270.47 149.57 270.204 152.356 270.95 154.981C269.333 155.097 267.714 154.777 266.286 154.057C266.559 153.735 266.798 153.388 266.997 153.022C268.047 149.566 268.409 145.958 268.065 142.38C268.174 140.454 268.699 138.569 269.606 136.837C270.382 135.506 271.324 134.265 272.413 133.142C272.413 133.142 272.413 132.661 272.413 132.698C269.409 133.437 267.946 136.615 267.313 139.165C266.404 142.86 267.037 146.555 266.246 150.251C266.104 151.11 265.752 151.927 265.217 152.639C264.683 153.35 263.98 153.937 263.163 154.353C261.452 155.119 259.563 155.474 257.668 155.387C255.573 155.387 254.822 154.094 253.715 152.616C252.893 151.689 251.768 151.04 250.513 150.768C250.331 150.732 250.142 150.732 249.96 150.768C249.871 150.782 249.789 150.822 249.725 150.881C249.662 150.941 249.619 151.018 249.604 151.101C249.604 151.101 249.604 151.101 249.604 151.396C249.956 151.71 250.326 152.006 250.711 152.283C252.529 154.168 248.497 155.35 247.114 155.239C245.73 155.129 243.833 154.131 242.252 154.353C240.67 154.574 240.315 155.978 239.327 156.644C238.032 157.479 236.51 157.953 234.939 158.011C233.31 158.037 231.703 157.665 230.275 156.933C228.847 156.201 227.647 155.133 226.796 153.835C224.78 150.953 223.317 146.075 227.942 144.856C227.942 144.856 228.179 144.449 227.942 144.412C226.124 143.784 224.424 145.299 223.989 146.888C223.571 148.688 223.779 150.565 224.582 152.246C225.419 154.209 226.78 155.94 228.535 157.272C228.535 157.272 228.535 157.272 228.535 157.494C228.061 162.963 220.313 162.963 216.36 161.189C214.321 159.969 212.195 158.883 209.995 157.937C207.497 157.216 204.825 157.216 202.327 157.937C202.09 157.937 202.09 158.528 202.327 158.528C204.126 158.343 205.942 158.343 207.742 158.528C209.303 158.784 210.786 159.351 212.091 160.191C214.034 161.585 216.194 162.694 218.494 163.48C218.509 164.602 218.119 165.695 217.387 166.584C216.906 167.07 216.346 167.481 215.727 167.803L214.779 168.173C214.386 168.347 213.975 168.483 213.553 168.579C213.553 168.579 213.553 168.912 213.553 168.949C214.002 169.08 214.467 169.154 214.937 169.171C215.356 169.227 215.782 169.227 216.202 169.171C217.202 168.882 218.085 168.315 218.731 167.545C219.636 166.504 220.101 165.189 220.036 163.85C223.989 164.404 230.472 162.963 230.195 158.417C230.983 158.817 231.819 159.127 232.685 159.341C234.543 159.748 236.484 159.672 238.299 159.12C239.06 158.862 239.789 158.527 240.473 158.122C241.263 157.604 241.777 156.791 242.528 156.274C243.279 155.757 245.454 156.533 246.481 156.718C247.422 156.884 248.387 156.884 249.328 156.718C250.133 156.598 250.883 156.262 251.487 155.75C252.091 155.238 252.522 154.573 252.727 153.835C253.212 154.611 253.826 155.309 254.545 155.905C255.844 156.7 257.385 157.076 258.933 156.976C261.41 156.972 263.805 156.147 265.693 154.648C266.798 155.45 268.098 155.984 269.477 156.203C270.856 156.422 272.272 156.32 273.599 155.905C276.484 155.018 277.947 152.542 280.358 151.027C281.584 150.214 283.837 149.438 284.904 151.027C285.237 151.633 285.411 152.304 285.411 152.985C285.411 153.666 285.237 154.338 284.904 154.944C283.801 157.531 281.971 159.79 279.607 161.485C274.155 165.296 267.363 167.039 260.593 166.362C253.913 165.993 247.193 163.997 240.473 165.365C237.515 165.869 234.773 167.151 232.567 169.06C231.523 170.225 230.571 171.46 229.721 172.755C229.128 173.541 228.324 174.166 227.388 174.566C227.092 174.693 226.766 174.747 226.441 174.722C226.115 174.697 225.803 174.595 225.532 174.424C225.262 174.253 225.044 174.02 224.898 173.747C224.752 173.474 224.684 173.171 224.7 172.866C224.7 172.533 224.028 171.868 223.712 172.312C222.289 174.418 224.859 176.561 227.112 176.45C230.788 176.266 232.013 172.57 234.227 170.464C239.88 165.18 248.735 166.769 255.81 167.656C263.44 169.112 271.373 168.095 278.303 164.773C280.714 163.443 282.73 161.078 285.774 161.078C286.507 161.053 287.237 161.172 287.918 161.426C288.598 161.681 289.215 162.066 289.727 162.556C290.531 163.688 290.884 165.048 290.725 166.399C290.566 167.749 289.905 169.005 288.857 169.947C284.679 173.992 279.362 176.849 273.52 178.187C270.676 179.257 267.586 179.626 264.546 179.259C261.981 178.779 259.477 178.049 257.075 177.079C252.657 174.952 247.59 174.312 242.726 175.268C239.87 176.45 237.208 178.005 234.82 179.887C233.458 180.88 231.831 181.506 230.116 181.698C229.657 181.711 229.201 181.632 228.778 181.466C228.354 181.3 227.974 181.051 227.663 180.735C227.352 180.42 227.117 180.046 226.974 179.638C226.831 179.23 226.784 178.798 226.835 178.372C226.835 177.855 226.045 176.894 225.57 177.596C223.949 179.961 226.361 182.659 228.851 183.287C229.914 183.479 231.007 183.47 232.066 183.261C233.126 183.051 234.129 182.645 235.018 182.067L238.259 182.437C239.761 182.608 241.252 182.855 242.726 183.176C245.3 183.653 247.763 184.554 249.999 185.837C252.016 186.999 253.677 188.628 254.822 190.567C255.393 191.494 255.731 192.53 255.81 193.597C255.866 194.263 255.715 194.93 255.376 195.518C255.099 196.036 254.901 196.146 255.099 196.775C255.296 197.403 255.494 197.366 255.81 197.292C257.075 197.07 257.471 195.629 257.589 194.594C257.693 193.409 257.49 192.217 256.996 191.121C255.884 188.784 254.123 186.768 251.897 185.282C249.523 183.695 246.836 182.564 243.991 181.957C242.24 181.528 240.456 181.232 238.654 181.07H236.638L237.469 180.478C240.043 178.254 243.285 176.822 246.758 176.377C249.894 176.486 252.979 177.151 255.85 178.335C258.75 179.486 261.771 180.353 264.863 180.922C268.156 181.319 271.502 180.925 274.587 179.776C277.194 178.965 279.753 178.028 282.256 176.968C283.403 176.487 284.512 175.931 285.576 175.305C286.011 175.046 286.406 174.935 286.841 174.714C287.374 174.418 287.929 174.159 288.501 173.938C289.078 173.863 289.664 173.863 290.241 173.938C291.364 173.888 292.489 174.026 293.561 174.344C294.583 174.711 295.419 175.425 295.903 176.343C296.386 177.26 296.482 178.315 296.17 179.296C295.659 180.896 294.707 182.342 293.409 183.49C292.112 184.638 290.515 185.447 288.778 185.837C281.149 187.98 271.78 184.654 265.06 189.828C263.703 190.902 262.722 192.331 262.243 193.932C261.764 195.533 261.809 197.231 262.372 198.807C262.768 199.62 264.625 199.842 264.191 198.807C263.664 196.912 263.916 194.901 264.896 193.17C265.876 191.44 267.514 190.116 269.488 189.458C273.826 188.171 278.388 187.67 282.928 187.98C283.652 188.017 284.378 188.017 285.102 187.98C284.217 188.641 283.512 189.49 283.046 190.456C282.546 191.535 282.398 192.729 282.624 193.887C282.849 195.045 283.436 196.114 284.311 196.959C285.285 197.728 286.425 198.291 287.653 198.61C288.881 198.929 290.168 198.996 291.427 198.807C292.909 198.604 294.375 198.308 295.814 197.92C296.947 197.513 298.2 197.513 299.332 197.92C299.615 198.039 299.862 198.222 300.05 198.453C300.238 198.683 300.361 198.954 300.408 199.241C300.455 199.527 300.425 199.82 300.32 200.093C300.215 200.366 300.039 200.61 299.807 200.803C299.57 200.803 299.609 201.579 300.004 201.468C300.361 201.317 300.678 201.095 300.932 200.816C301.186 200.537 301.371 200.209 301.473 199.856C301.575 199.503 301.592 199.132 301.523 198.772C301.453 198.412 301.299 198.07 301.072 197.772C300.243 196.99 299.184 196.457 298.029 196.239C296.874 196.022 295.677 196.131 294.589 196.553C292.212 197.387 289.622 197.528 287.157 196.959C286.485 196.67 285.899 196.231 285.452 195.68C285.005 195.129 284.709 194.483 284.592 193.8C284.475 193.117 284.54 192.418 284.78 191.763C285.021 191.109 285.43 190.521 285.971 190.049C287.12 189.116 288.47 188.425 289.93 188.023C291.389 187.622 292.925 187.519 294.431 187.721C297.25 187.892 300.063 187.302 302.534 186.021C304.906 184.654 306.804 182.769 309.096 181.328C311.389 179.887 316.291 178.372 317.951 181.846C319.611 185.319 315.223 186.169 313.484 187.721C311.745 189.273 310.757 191.86 312.575 193.486C312.891 193.745 312.97 193.079 312.852 192.932C310.796 190.345 315.737 188.202 317.437 187.056C318.366 186.545 319.084 185.757 319.478 184.82C319.872 183.882 319.919 182.848 319.611 181.883C319.19 180.781 318.442 179.814 317.455 179.094C316.469 178.374 315.283 177.932 314.038 177.818H313.958Z" fill="#455A64"/>
<path d="M295.103 209.265C290.623 209.22 286.184 208.457 281.979 207.011C274.982 204.683 270.871 203.094 267.827 201.948C261.147 199.361 259.17 198.585 241.935 195.777L239.01 195.333C222.961 192.784 210.233 190.751 213.039 169.947C190.31 169.947 188.215 168.469 180.269 160.635L179.558 159.969C177.425 158.335 175.808 156.189 174.882 153.76C173.955 151.332 173.754 148.713 174.3 146.186C174.523 144.53 174.523 142.854 174.3 141.197C173.391 133.4 176.435 128.448 184.815 124.162C188.328 122.158 191.579 119.777 194.5 117.067C199.964 111.77 206.565 107.614 213.869 104.872C227.823 100.29 271.82 99.0708 293.759 117.695C319.967 139.867 330.521 160.413 325.975 180.515C323.169 192.858 317.121 201.763 308.543 206.382C304.398 208.397 299.772 209.389 295.103 209.265ZM238.18 104.355C230.305 104.152 222.442 105.061 214.858 107.053C207.875 109.694 201.56 113.672 196.318 118.73C193.28 121.57 189.881 124.051 186.199 126.12C177.542 130.518 176.237 135.026 176.909 140.902C177.154 142.73 177.154 144.579 176.909 146.408C176.401 148.599 176.562 150.88 177.372 152.99C178.183 155.1 179.611 156.955 181.495 158.344L182.167 159.009C189.756 166.399 190.942 167.619 214.621 167.619C214.795 167.62 214.966 167.657 215.124 167.727C215.281 167.797 215.419 167.899 215.53 168.025C215.652 168.139 215.741 168.28 215.789 168.436C215.838 168.591 215.844 168.754 215.806 168.912C212.644 188.756 223.357 190.456 239.524 193.042L242.41 193.486C259.922 196.368 261.977 197.181 268.855 199.768C271.859 200.95 275.97 202.502 282.849 204.793C286.792 206.357 291.052 207.097 295.333 206.963C299.614 206.829 303.811 205.824 307.634 204.017C315.54 199.879 321.192 191.49 323.88 179.813C328.189 160.745 317.911 140.976 292.257 119.321C278.896 108.013 256.206 104.355 238.18 104.355Z" fill="#455A64"/>
<g filter="url(#filter0_f_1_166)">
<path d="M265 151C265 153.967 264.179 156.867 262.641 159.334C261.102 161.8 258.916 163.723 256.358 164.858C253.8 165.993 250.984 166.291 248.269 165.712C245.553 165.133 243.058 163.704 241.1 161.607C239.143 159.509 237.809 156.836 237.269 153.926C236.729 151.017 237.006 148.001 238.066 145.26C239.125 142.519 240.92 140.176 243.222 138.528C245.524 136.88 248.231 136 251 136C254.713 136 258.274 137.58 260.9 140.393C263.525 143.206 265 147.022 265 151Z" fill="#795050"/>
</g>
<path d="M250 380.26C357.082 380.26 443.89 373.58 443.89 365.34C443.89 357.1 357.082 350.42 250 350.42C142.917 350.42 56.11 357.1 56.11 365.34C56.11 373.58 142.917 380.26 250 380.26Z" fill="#F5F5F5"/>
<path d="M165.899 82.6348C169.216 68.5841 160.514 54.5055 146.463 51.1892C132.412 47.8729 118.334 56.5749 115.017 70.6256C111.701 84.6762 120.403 98.7549 134.454 102.071C148.504 105.387 162.583 96.6855 165.899 82.6348Z" fill="#16A085"/>
<path opacity="0.8" d="M153.49 73.49H143.61V63.61H137.32V73.49H127.43V79.78H137.32V89.67H143.61V79.78H153.49V73.49Z" fill="white"/>
<path d="M129.34 94.27L128.71 111.28L138.45 97.32L129.34 94.27Z" fill="#16A085"/>
<path d="M412.56 243.81V228.05H380.56V243.81C380.559 246.356 379.917 248.862 378.694 251.095C377.47 253.328 375.705 255.218 373.56 256.59C371.412 257.959 369.645 259.849 368.421 262.082C367.198 264.316 366.558 266.823 366.56 269.37V362.06C366.56 362.512 366.649 362.959 366.822 363.376C366.995 363.794 367.248 364.173 367.568 364.492C367.887 364.812 368.266 365.065 368.684 365.238C369.101 365.411 369.548 365.5 370 365.5H423.1C424.012 365.5 424.887 365.138 425.532 364.492C426.178 363.847 426.54 362.972 426.54 362.06V269.37C426.542 266.823 425.901 264.317 424.677 262.083C423.454 259.849 421.687 257.96 419.54 256.59C417.398 255.216 415.636 253.326 414.416 251.092C413.197 248.859 412.558 246.355 412.56 243.81Z" fill="#16A085"/>
<path opacity="0.2" d="M426.57 269.36V362.07C426.567 362.981 426.204 363.853 425.559 364.496C424.914 365.139 424.041 365.5 423.13 365.5H370C369.089 365.5 368.216 365.139 367.571 364.496C366.926 363.853 366.563 362.981 366.56 362.07V269.36C366.564 266.815 367.207 264.313 368.43 262.081C369.653 259.85 371.417 257.962 373.56 256.59C375.383 255.427 376.937 253.888 378.117 252.075C379.296 250.262 380.075 248.218 380.4 246.08C380.512 245.325 380.569 244.563 380.57 243.8V228.05H412.57V243.8C412.571 246.348 413.212 248.855 414.435 251.09C415.658 253.325 417.424 255.216 419.57 256.59C421.716 257.959 423.483 259.846 424.706 262.078C425.93 264.31 426.571 266.815 426.57 269.36Z" fill="black"/>
<path opacity="0.7" d="M426.58 286.57H379.84V331.28H426.58V286.57Z" fill="white"/>
<path opacity="0.1" d="M426.57 269.36V362.07C426.567 362.981 426.204 363.853 425.559 364.496C424.914 365.139 424.041 365.5 423.13 365.5H370C369.089 365.5 368.216 365.139 367.571 364.496C366.926 363.853 366.563 362.981 366.56 362.07V356.63C367.245 357.703 368.187 358.589 369.302 359.205C370.416 359.822 371.667 360.15 372.94 360.16L412.06 360.51C412.856 360.51 413.619 360.194 414.181 359.631C414.744 359.069 415.06 358.306 415.06 357.51V268.77C415.062 267.166 414.661 265.588 413.894 264.179C413.127 262.771 412.018 261.578 410.67 260.71C409.318 259.844 408.205 258.652 407.435 257.244C406.664 255.835 406.26 254.256 406.26 252.65V250.88C393.94 250.88 385.52 248.36 380.44 246.08C380.552 245.325 380.609 244.563 380.61 243.8V231.96H412.61V243.8C412.61 246.348 413.252 248.855 414.475 251.09C415.698 253.325 417.464 255.216 419.61 256.59C421.749 257.963 423.507 259.853 424.724 262.085C425.94 264.316 426.575 266.818 426.57 269.36Z" fill="black"/>
<path opacity="0.2" d="M392 247.29C392.06 246.89 392.12 246.49 392.16 246.08C392.23 245.34 392.27 244.57 392.27 243.8V242.4H387V243.8C387.001 244.564 386.941 245.326 386.82 246.08C386.76 246.49 386.67 246.89 386.57 247.29H392Z" fill="white"/>
<path opacity="0.2" d="M384.4 262.08C385.082 260.025 386.216 258.149 387.72 256.59C389.562 254.623 390.861 252.211 391.49 249.59H385.83C384.643 252.468 382.601 254.911 379.98 256.59C377.833 257.957 376.065 259.844 374.841 262.077C373.618 264.309 372.977 266.814 372.98 269.36V354.36C372.983 355.272 373.346 356.145 373.99 356.79C374.635 357.434 375.508 357.797 376.42 357.8H385.42C384.19 357.8 383.2 356.25 383.2 354.36V269.36C383.192 266.883 383.597 264.423 384.4 262.08Z" fill="white"/>
<path d="M416.47 221.83V237.28C416.47 237.566 416.414 237.85 416.304 238.114C416.194 238.379 416.034 238.619 415.831 238.822C415.629 239.024 415.389 239.185 415.124 239.294C414.86 239.404 414.576 239.46 414.29 239.46H378.88C378.42 239.459 377.972 239.312 377.6 239.041C377.228 238.77 376.951 238.388 376.81 237.95C376.733 237.735 376.696 237.508 376.7 237.28V221.83C376.699 221.543 376.754 221.258 376.863 220.993C376.972 220.727 377.132 220.486 377.335 220.282C377.538 220.079 377.778 219.917 378.043 219.807C378.309 219.697 378.593 219.64 378.88 219.64H414.29C414.577 219.64 414.861 219.697 415.127 219.807C415.392 219.917 415.632 220.079 415.835 220.282C416.038 220.486 416.198 220.727 416.307 220.993C416.416 221.258 416.471 221.543 416.47 221.83Z" fill="#16A085"/>
<path opacity="0.5" d="M416.47 221.83V237.28C416.47 237.566 416.414 237.85 416.304 238.114C416.194 238.379 416.034 238.619 415.831 238.822C415.629 239.024 415.389 239.185 415.124 239.294C414.86 239.404 414.576 239.46 414.29 239.46H378.88C378.42 239.459 377.972 239.312 377.6 239.041C377.228 238.77 376.951 238.388 376.81 237.95C376.733 237.735 376.696 237.508 376.7 237.28V221.83C376.699 221.543 376.754 221.258 376.863 220.993C376.972 220.727 377.132 220.486 377.335 220.282C377.538 220.079 377.778 219.917 378.043 219.807C378.309 219.697 378.593 219.64 378.88 219.64H414.29C414.577 219.64 414.861 219.697 415.127 219.807C415.392 219.917 415.632 220.079 415.835 220.282C416.038 220.486 416.198 220.727 416.307 220.993C416.416 221.258 416.471 221.543 416.47 221.83Z" fill="white"/>
<path opacity="0.2" d="M412.13 220.33V235.77C412.131 236.057 412.076 236.342 411.966 236.608C411.856 236.874 411.695 237.115 411.491 237.318C411.287 237.521 411.045 237.681 410.779 237.79C410.513 237.898 410.227 237.953 409.94 237.95H376.81C376.733 237.735 376.696 237.508 376.7 237.28V221.83C376.699 221.543 376.754 221.258 376.863 220.993C376.972 220.727 377.132 220.486 377.335 220.282C377.538 220.079 377.778 219.917 378.043 219.807C378.309 219.697 378.593 219.64 378.88 219.64H412C412.085 219.86 412.129 220.094 412.13 220.33Z" fill="white"/>
<path d="M321.71 283.1H369.54V363.1C369.54 363.418 369.477 363.732 369.356 364.026C369.234 364.32 369.056 364.586 368.831 364.811C368.606 365.036 368.34 365.214 368.046 365.336C367.752 365.457 367.438 365.52 367.12 365.52H324.12C323.478 365.52 322.863 365.265 322.409 364.811C321.955 364.357 321.7 363.742 321.7 363.1V283.1H321.71Z" fill="#263238"/>
<path opacity="0.7" d="M369.54 283.11V362.41C369.54 363.23 369.214 364.015 368.635 364.595C368.055 365.174 367.27 365.5 366.45 365.5H324.8C323.98 365.5 323.195 365.174 322.615 364.595C322.036 364.015 321.71 363.23 321.71 362.41V283.11H369.54Z" fill="white"/>
<path opacity="0.7" d="M351.88 306.37H321.71V342.47H351.88V306.37Z" fill="white"/>
<path opacity="0.1" d="M369.54 284.19V362.41C369.54 363.23 369.214 364.015 368.635 364.595C368.055 365.174 367.27 365.5 366.45 365.5H324.8C323.98 365.5 323.195 365.174 322.615 364.595C322.036 364.015 321.71 363.23 321.71 362.41H351.81C352.468 362.41 353.099 362.149 353.564 361.684C354.029 361.219 354.29 360.588 354.29 359.93V296.21C330.55 296.21 323.23 292.56 321.71 292.26V283.26L369.54 284.19Z" fill="black"/>
<path d="M369.64 278.98H321.59C320.751 278.98 320.07 279.661 320.07 280.5V290.72C320.07 291.559 320.751 292.24 321.59 292.24H369.64C370.479 292.24 371.16 291.559 371.16 290.72V280.5C371.16 279.661 370.479 278.98 369.64 278.98Z" fill="#16A085"/>
<path opacity="0.2" d="M321.61 278.98C321.409 278.979 321.21 279.017 321.024 279.093C320.838 279.168 320.668 279.28 320.525 279.421C320.382 279.562 320.268 279.73 320.19 279.915C320.112 280.1 320.071 280.299 320.07 280.5V289.89H322.54V280.81C322.54 280.64 322.607 280.477 322.727 280.357C322.847 280.237 323.01 280.17 323.18 280.17C323.35 280.17 323.513 280.237 323.633 280.357C323.753 280.477 323.82 280.64 323.82 280.81V289.89H327.1V280.81C327.1 280.726 327.117 280.643 327.149 280.565C327.181 280.487 327.228 280.417 327.287 280.357C327.347 280.298 327.417 280.251 327.495 280.219C327.573 280.187 327.656 280.17 327.74 280.17C327.824 280.17 327.907 280.187 327.985 280.219C328.063 280.251 328.133 280.298 328.193 280.357C328.252 280.417 328.299 280.487 328.331 280.565C328.363 280.643 328.38 280.726 328.38 280.81V289.89H331.67V280.81C331.67 280.64 331.737 280.477 331.857 280.357C331.977 280.237 332.14 280.17 332.31 280.17C332.48 280.17 332.643 280.237 332.763 280.357C332.883 280.477 332.95 280.64 332.95 280.81V289.89H336.24V280.81C336.229 280.72 336.237 280.628 336.263 280.542C336.29 280.455 336.335 280.375 336.395 280.307C336.455 280.239 336.529 280.184 336.612 280.147C336.694 280.109 336.784 280.09 336.875 280.09C336.966 280.09 337.056 280.109 337.138 280.147C337.221 280.184 337.295 280.239 337.355 280.307C337.415 280.375 337.46 280.455 337.487 280.542C337.513 280.628 337.521 280.72 337.51 280.81V289.89H340.8V280.81C340.8 280.64 340.867 280.477 340.987 280.357C341.107 280.237 341.27 280.17 341.44 280.17C341.61 280.17 341.773 280.237 341.893 280.357C342.013 280.477 342.08 280.64 342.08 280.81V289.89H345.37V280.81C345.359 280.72 345.367 280.628 345.393 280.542C345.42 280.455 345.465 280.375 345.525 280.307C345.585 280.239 345.659 280.184 345.742 280.147C345.824 280.109 345.914 280.09 346.005 280.09C346.096 280.09 346.186 280.109 346.268 280.147C346.351 280.184 346.425 280.239 346.485 280.307C346.545 280.375 346.59 280.455 346.617 280.542C346.643 280.628 346.651 280.72 346.64 280.81V289.89H349.93V280.81C349.93 280.64 349.997 280.477 350.117 280.357C350.237 280.237 350.4 280.17 350.57 280.17C350.74 280.17 350.903 280.237 351.023 280.357C351.143 280.477 351.21 280.64 351.21 280.81V289.89H354.5V280.81C354.5 280.64 354.567 280.477 354.687 280.357C354.807 280.237 354.97 280.17 355.14 280.17C355.31 280.17 355.473 280.237 355.593 280.357C355.713 280.477 355.78 280.64 355.78 280.81V289.89H359.06V280.81C359.06 280.64 359.127 280.477 359.247 280.357C359.367 280.237 359.53 280.17 359.7 280.17C359.87 280.17 360.033 280.237 360.153 280.357C360.273 280.477 360.34 280.64 360.34 280.81V289.89H363.63V280.81C363.63 280.64 363.697 280.477 363.817 280.357C363.937 280.237 364.1 280.17 364.27 280.17C364.44 280.17 364.603 280.237 364.723 280.357C364.843 280.477 364.91 280.64 364.91 280.81V289.89H365.91C366.312 289.887 366.697 289.726 366.982 289.442C367.266 289.157 367.427 288.772 367.43 288.37V278.98H321.61Z" fill="white"/>
<path opacity="0.3" d="M331.23 296.05H325.9V300.29H331.23V296.05Z" fill="white"/>
<path opacity="0.3" d="M331.23 358.56V302.56H325.9V358.56C325.913 359.082 326.13 359.578 326.503 359.942C326.877 360.306 327.378 360.51 327.9 360.51H333.11C332.603 360.497 332.122 360.285 331.77 359.92C331.419 359.555 331.225 359.067 331.23 358.56Z" fill="white"/>
<path d="M254.69 360.37C255.471 362.363 257.011 363.965 258.972 364.824C260.934 365.683 263.155 365.728 265.15 364.95L296.7 352.61C298.621 351.783 300.146 350.241 300.952 348.311C301.757 346.381 301.781 344.213 301.018 342.265C300.254 340.317 298.764 338.743 296.861 337.874C294.958 337.006 292.792 336.911 290.82 337.61L259.27 349.94C257.279 350.721 255.679 352.26 254.82 354.218C253.962 356.177 253.915 358.397 254.69 360.39V360.37Z" fill="#16A085"/>
<path opacity="0.7" d="M272.55 353.39C272.935 354.378 273.51 355.28 274.244 356.044C274.977 356.809 275.854 357.422 276.825 357.847C277.796 358.273 278.841 358.502 279.9 358.524C280.96 358.545 282.013 358.356 283 357.97L296.71 352.61C298.631 351.783 300.156 350.241 300.962 348.311C301.767 346.381 301.791 344.213 301.028 342.265C300.264 340.317 298.774 338.743 296.871 337.874C294.968 337.006 292.801 336.911 290.83 337.61L277.13 342.97C276.14 343.349 275.234 343.921 274.467 344.653C273.7 345.385 273.086 346.262 272.66 347.234C272.235 348.205 272.007 349.251 271.99 350.312C271.973 351.372 272.166 352.425 272.56 353.41L272.55 353.39Z" fill="#263238"/>
<path opacity="0.1" d="M254.69 360.37C255.471 362.363 257.011 363.965 258.972 364.824C260.934 365.683 263.155 365.728 265.15 364.95L296.7 352.61C298.509 351.91 299.999 350.573 300.89 348.85C300.268 349.339 299.577 349.733 298.84 350.02L267.29 362.36C265.806 362.929 264.187 363.047 262.636 362.699C261.085 362.351 259.671 361.553 258.572 360.405C257.473 359.256 256.738 357.809 256.458 356.245C256.178 354.68 256.367 353.068 257 351.61C257.073 351.435 257.157 351.265 257.25 351.1C256.22 351.93 255.401 352.993 254.86 354.2C254.424 355.166 254.185 356.209 254.156 357.268C254.127 358.327 254.308 359.382 254.69 360.37Z" fill="black"/>
<path opacity="0.3" d="M261.41 354.33L284.56 345.28C284.875 345.157 285.128 344.915 285.265 344.606C285.402 344.296 285.411 343.946 285.29 343.63C285.165 343.317 284.922 343.066 284.613 342.931C284.304 342.796 283.954 342.789 283.64 342.91L260.48 351.97C260.324 352.03 260.182 352.12 260.062 352.235C259.941 352.35 259.845 352.487 259.778 352.64C259.711 352.792 259.675 352.957 259.672 353.123C259.669 353.29 259.699 353.455 259.76 353.61C259.82 353.767 259.91 353.91 260.026 354.031C260.141 354.153 260.28 354.25 260.434 354.317C260.587 354.384 260.753 354.42 260.92 354.422C261.088 354.424 261.255 354.393 261.41 354.33Z" fill="white"/>
<path opacity="0.3" d="M287.86 343.99C288.096 344.59 288.504 345.106 289.033 345.474C289.562 345.842 290.188 346.045 290.832 346.057C291.477 346.069 292.11 345.89 292.653 345.542C293.195 345.195 293.623 344.694 293.881 344.104C294.139 343.513 294.216 342.86 294.103 342.225C293.99 341.591 293.692 341.004 293.245 340.539C292.799 340.075 292.225 339.753 291.596 339.614C290.967 339.475 290.31 339.526 289.71 339.76C288.905 340.077 288.258 340.7 287.911 341.493C287.564 342.286 287.546 343.184 287.86 343.99Z" fill="white"/>
<path d="M324.19 357.43C324.19 358.491 323.981 359.541 323.575 360.521C323.169 361.5 322.573 362.39 321.823 363.14C321.072 363.889 320.182 364.484 319.201 364.889C318.221 365.294 317.171 365.501 316.11 365.5H282.24C280.15 365.426 278.17 364.544 276.718 363.04C275.266 361.536 274.454 359.526 274.454 357.435C274.454 355.344 275.266 353.334 276.718 351.83C278.17 350.326 280.15 349.444 282.24 349.37H316.11C318.249 349.373 320.299 350.222 321.813 351.732C323.328 353.243 324.182 355.291 324.19 357.43Z" fill="#16A085"/>
<path opacity="0.7" d="M305 357.43C305.003 359.559 304.163 361.603 302.664 363.115C301.165 364.627 299.129 365.484 297 365.5H282.24C280.15 365.426 278.17 364.544 276.718 363.04C275.266 361.536 274.454 359.526 274.454 357.435C274.454 355.344 275.266 353.334 276.718 351.83C278.17 350.326 280.15 349.444 282.24 349.37H297C299.135 349.375 301.181 350.226 302.69 351.737C304.199 353.248 305.047 355.295 305.05 357.43H305Z" fill="white"/>
<path opacity="0.1" d="M324.19 357.43C324.19 358.491 323.981 359.541 323.575 360.521C323.169 361.5 322.573 362.39 321.823 363.14C321.072 363.889 320.182 364.484 319.201 364.889C318.221 365.294 317.171 365.501 316.11 365.5H282.24C280.298 365.5 278.423 364.789 276.97 363.5C277.725 363.733 278.51 363.851 279.3 363.85H313.18C314.775 363.849 316.334 363.376 317.661 362.49C318.987 361.604 320.021 360.345 320.632 358.871C321.243 357.398 321.403 355.776 321.093 354.212C320.783 352.647 320.017 351.209 318.89 350.08C318.756 349.943 318.612 349.816 318.46 349.7C319.725 350.086 320.878 350.772 321.82 351.7C322.576 352.449 323.176 353.342 323.583 354.326C323.99 355.31 324.196 356.365 324.19 357.43Z" fill="black"/>
<path opacity="0.3" d="M315.74 354.26H290.87C290.702 354.26 290.536 354.227 290.382 354.162C290.227 354.098 290.086 354.003 289.968 353.884C289.85 353.765 289.757 353.624 289.694 353.469C289.631 353.314 289.599 353.148 289.6 352.98C289.6 352.643 289.734 352.32 289.972 352.082C290.21 351.844 290.533 351.71 290.87 351.71H315.74C316.077 351.71 316.4 351.844 316.638 352.082C316.876 352.32 317.01 352.643 317.01 352.98C317.011 353.148 316.979 353.314 316.916 353.469C316.853 353.624 316.76 353.765 316.642 353.884C316.523 354.003 316.383 354.098 316.228 354.162C316.074 354.227 315.908 354.26 315.74 354.26Z" fill="white"/>
<path opacity="0.3" d="M284.07 357.52C285.87 357.52 287.33 356.06 287.33 354.26C287.33 352.46 285.87 351 284.07 351C282.27 351 280.81 352.46 280.81 354.26C280.81 356.06 282.27 357.52 284.07 357.52Z" fill="white"/>
<path d="M229.1 133.95L228.55 134.07C228.529 134.595 228.38 135.107 228.117 135.561C227.854 136.016 227.484 136.4 227.04 136.68L227.2 137.22L226.82 136.81C226.354 137.054 225.836 137.184 225.31 137.19C224.787 137.184 224.273 137.054 223.81 136.81L223.42 137.22L223.58 136.68C223.138 136.398 222.771 136.014 222.51 135.559C222.248 135.105 222.101 134.594 222.08 134.07L221.82 134.01L221.57 133.96L222.09 133.84V133.53C222.155 133.065 222.32 132.619 222.574 132.224C222.828 131.828 223.164 131.493 223.56 131.24L223.4 130.7L223.79 131.12C224.249 130.864 224.765 130.73 225.29 130.73C225.815 130.73 226.331 130.864 226.79 131.12L226.94 130.95L227.18 130.7L227.06 131.1V131.24L227.33 131.43C227.487 131.548 227.628 131.686 227.75 131.84C227.785 131.868 227.816 131.902 227.84 131.94C228.287 132.479 228.544 133.15 228.57 133.85L229.1 133.95Z" fill="#16A085"/>
<path opacity="0.2" d="M227.14 134.65L227.44 135.05L226.99 134.83C226.679 135.17 226.289 135.429 225.855 135.584C225.421 135.739 224.956 135.786 224.5 135.72L224.3 136.18V135.68C223.848 135.581 223.426 135.376 223.07 135.08C222.725 134.775 222.455 134.396 222.28 133.97H221.85L222.12 133.8L222.21 133.74C222.181 133.659 222.161 133.575 222.15 133.49C222.215 133.025 222.38 132.579 222.634 132.184C222.888 131.788 223.224 131.453 223.62 131.2L223.46 130.66L223.85 131.08C224.309 130.824 224.825 130.69 225.35 130.69C225.875 130.69 226.391 130.824 226.85 131.08L227 130.91C227.046 130.955 227.086 131.005 227.12 131.06V131.2L227.39 131.39C227.477 131.526 227.551 131.67 227.61 131.82H227.81C227.845 131.848 227.876 131.882 227.9 131.92L227.7 132.05C227.826 132.496 227.841 132.966 227.743 133.42C227.646 133.873 227.438 134.295 227.14 134.65Z" fill="white"/>
<path d="M249.41 165L248.86 165.12C248.839 165.645 248.69 166.157 248.427 166.611C248.164 167.066 247.794 167.45 247.35 167.73L247.51 168.27L247.13 167.86C246.664 168.104 246.146 168.234 245.62 168.24C245.097 168.234 244.583 168.104 244.12 167.86L243.73 168.27L243.89 167.73C243.448 167.448 243.081 167.064 242.82 166.609C242.558 166.155 242.411 165.644 242.39 165.12L242.13 165.06L241.88 165.01L242.4 164.89V164.58C242.465 164.115 242.63 163.669 242.884 163.274C243.138 162.878 243.474 162.543 243.87 162.29L243.71 161.75L244.1 162.17C244.559 161.914 245.075 161.78 245.6 161.78C246.125 161.78 246.641 161.914 247.1 162.17L247.25 162L247.49 161.75L247.37 162.15V162.29L247.64 162.48C247.797 162.598 247.938 162.736 248.06 162.89C248.095 162.918 248.126 162.952 248.15 162.99C248.597 163.529 248.854 164.2 248.88 164.9L249.41 165Z" fill="#16A085"/>
<path opacity="0.2" d="M247.45 165.7L247.75 166.1L247.3 165.88C246.989 166.22 246.599 166.479 246.165 166.634C245.731 166.789 245.266 166.836 244.81 166.77L244.61 167.23V166.73C244.158 166.631 243.736 166.426 243.38 166.13C243.035 165.825 242.765 165.446 242.59 165.02H242.16L242.43 164.85L242.52 164.79C242.491 164.709 242.471 164.625 242.46 164.54C242.525 164.075 242.69 163.629 242.944 163.234C243.198 162.838 243.534 162.503 243.93 162.25L243.77 161.71L244.16 162.13C244.619 161.874 245.135 161.74 245.66 161.74C246.185 161.74 246.701 161.874 247.16 162.13L247.31 161.96C247.356 162.005 247.396 162.055 247.43 162.11V162.25L247.7 162.44C247.787 162.576 247.861 162.72 247.92 162.87H248.12C248.155 162.898 248.186 162.932 248.21 162.97L248.01 163.1C248.136 163.546 248.151 164.016 248.053 164.47C247.956 164.923 247.748 165.345 247.45 165.7Z" fill="white"/>
<path d="M263 133.43L262.45 133.55C262.429 134.075 262.28 134.587 262.017 135.041C261.754 135.496 261.384 135.88 260.94 136.16L261.1 136.7L260.72 136.29C260.254 136.534 259.736 136.664 259.21 136.67C258.687 136.664 258.173 136.534 257.71 136.29L257.32 136.7L257.48 136.16C257.038 135.878 256.671 135.494 256.41 135.039C256.148 134.585 256.001 134.074 255.98 133.55L255.72 133.49H255.47L255.99 133.37V133.06C256.055 132.595 256.22 132.149 256.474 131.754C256.728 131.358 257.064 131.023 257.46 130.77L257.3 130.23L257.69 130.65C258.149 130.394 258.665 130.26 259.19 130.26C259.715 130.26 260.231 130.394 260.69 130.65L260.84 130.48L261.08 130.23L260.96 130.63V130.77L261.23 130.96C261.387 131.078 261.528 131.216 261.65 131.37C261.685 131.398 261.716 131.432 261.74 131.47C262.187 132.009 262.444 132.68 262.47 133.38L263 133.43Z" fill="#16A085"/>
<path opacity="0.2" d="M261.07 134.13L261.37 134.53L260.92 134.31C260.609 134.65 260.219 134.909 259.785 135.064C259.351 135.219 258.886 135.266 258.43 135.2L258.23 135.66V135.16C257.778 135.061 257.356 134.856 257 134.56C256.655 134.255 256.385 133.876 256.21 133.45H255.78L256.05 133.28L256.14 133.22C256.111 133.139 256.09 133.055 256.08 132.97C256.145 132.505 256.31 132.059 256.564 131.664C256.818 131.268 257.154 130.933 257.55 130.68L257.39 130.14L257.78 130.56C258.239 130.304 258.755 130.17 259.28 130.17C259.805 130.17 260.321 130.304 260.78 130.56L260.93 130.39C260.976 130.435 261.016 130.485 261.05 130.54V130.68L261.32 130.87C261.407 131.006 261.481 131.15 261.54 131.3H261.74C261.775 131.328 261.806 131.362 261.83 131.4L261.63 131.53C261.756 131.976 261.771 132.446 261.673 132.9C261.576 133.353 261.368 133.775 261.07 134.13Z" fill="white"/>
<path d="M227.42 159.29C227.311 159.308 227.199 159.308 227.09 159.29C226.966 159.246 226.851 159.178 226.753 159.09C226.655 159.002 226.576 158.896 226.519 158.777C226.462 158.658 226.43 158.529 226.423 158.397C226.416 158.266 226.436 158.134 226.48 158.01C228.64 151.92 224.93 149.43 224.77 149.33C224.546 149.187 224.388 148.96 224.331 148.701C224.273 148.441 224.322 148.169 224.465 147.945C224.608 147.721 224.835 147.563 225.094 147.506C225.354 147.448 225.626 147.497 225.85 147.64C225.9 147.64 231.07 151.03 228.36 158.64C228.288 158.831 228.16 158.996 227.992 159.113C227.824 159.229 227.624 159.291 227.42 159.29Z" fill="#16A085"/>
<path d="M246.05 150.66C245.803 150.662 245.564 150.571 245.379 150.407C245.194 150.243 245.077 150.016 245.05 149.77C244.9 148.42 243.05 147.63 241.18 146.87C238.83 145.87 235.89 144.68 236.76 141.65C236.79 141.518 236.848 141.393 236.928 141.283C237.008 141.174 237.11 141.082 237.227 141.013C237.344 140.944 237.473 140.9 237.608 140.882C237.743 140.865 237.879 140.876 238.01 140.913C238.14 140.95 238.262 141.014 238.367 141.1C238.472 141.186 238.559 141.292 238.621 141.413C238.684 141.533 238.722 141.665 238.732 141.8C238.742 141.936 238.724 142.072 238.68 142.2C238.36 143.32 239.22 143.89 241.95 145.03C244.2 145.96 246.76 147.03 247.04 149.55C247.055 149.681 247.044 149.815 247.008 149.942C246.971 150.069 246.91 150.188 246.827 150.291C246.744 150.394 246.642 150.48 246.525 150.543C246.409 150.607 246.282 150.646 246.15 150.66H246.05Z" fill="#16A085"/>
<path d="M238.36 128.68C238.156 128.681 237.956 128.619 237.788 128.503C237.62 128.386 237.492 128.221 237.42 128.03C237.209 127.356 237.161 126.642 237.281 125.947C237.401 125.251 237.685 124.594 238.11 124.03C238.823 123.095 239.753 122.348 240.819 121.854C241.885 121.359 243.056 121.131 244.23 121.19C244.495 121.19 244.75 121.295 244.937 121.483C245.125 121.67 245.23 121.925 245.23 122.19C245.23 122.455 245.125 122.71 244.937 122.897C244.75 123.085 244.495 123.19 244.23 123.19C243.377 123.136 242.524 123.29 241.744 123.638C240.963 123.986 240.279 124.519 239.75 125.19C239.509 125.496 239.342 125.854 239.262 126.236C239.182 126.618 239.192 127.013 239.29 127.39C239.337 127.513 239.359 127.644 239.355 127.775C239.351 127.906 239.321 128.035 239.267 128.155C239.213 128.275 239.136 128.383 239.041 128.473C238.945 128.563 238.833 128.633 238.71 128.68C238.594 128.698 238.476 128.698 238.36 128.68Z" fill="#16A085"/>
<path d="M256.23 155.02C255.973 155.019 255.725 154.919 255.54 154.74C255.354 154.553 255.249 154.299 255.249 154.035C255.249 153.771 255.354 153.517 255.54 153.33C257.779 150.846 260.453 148.793 263.43 147.27C263.551 147.217 263.682 147.189 263.814 147.187C263.947 147.186 264.078 147.21 264.201 147.259C264.323 147.309 264.435 147.382 264.53 147.475C264.624 147.567 264.699 147.678 264.75 147.8C264.853 148.044 264.855 148.319 264.756 148.565C264.657 148.81 264.464 149.006 264.22 149.11C261.495 150.534 259.043 152.43 256.98 154.71C256.884 154.811 256.767 154.891 256.638 154.945C256.509 154.998 256.37 155.024 256.23 155.02Z" fill="#16A085"/>
<g opacity="0.2">
<path d="M227.42 158.79H227.25C227.125 158.745 227.024 158.652 226.968 158.532C226.911 158.412 226.905 158.275 226.95 158.15C229.25 151.65 225.22 148.99 225.05 148.88C224.993 148.846 224.944 148.801 224.904 148.748C224.865 148.694 224.838 148.634 224.823 148.569C224.808 148.505 224.806 148.438 224.817 148.373C224.829 148.308 224.854 148.245 224.89 148.19C224.962 148.079 225.074 148.001 225.203 147.971C225.331 147.941 225.467 147.962 225.58 148.03C225.58 148.03 230.47 151.21 227.89 158.48C227.854 158.575 227.79 158.655 227.705 158.711C227.621 158.767 227.521 158.794 227.42 158.79Z" fill="white"/>
</g>
<g opacity="0.2">
<path d="M246.05 150.16C245.928 150.161 245.811 150.116 245.72 150.035C245.629 149.953 245.572 149.841 245.56 149.72C245.38 148.07 243.35 147.23 241.38 146.41C239.1 145.46 236.51 144.41 237.25 141.78C237.289 141.654 237.376 141.549 237.492 141.485C237.607 141.422 237.743 141.406 237.87 141.44C237.933 141.458 237.992 141.489 238.043 141.53C238.094 141.571 238.137 141.622 238.168 141.68C238.2 141.737 238.22 141.8 238.227 141.866C238.234 141.931 238.228 141.997 238.21 142.06C237.74 143.72 239.21 144.44 241.77 145.49C243.9 146.37 246.31 147.38 246.55 149.61C246.564 149.741 246.526 149.873 246.443 149.976C246.361 150.079 246.241 150.145 246.11 150.16H246.05Z" fill="white"/>
</g>
<g opacity="0.2">
<path d="M238.36 128.18C238.258 128.182 238.158 128.152 238.074 128.095C237.99 128.038 237.925 127.956 237.89 127.86C237.7 127.257 237.658 126.616 237.767 125.993C237.877 125.37 238.135 124.782 238.52 124.28C239.187 123.411 240.055 122.718 241.05 122.26C242.045 121.801 243.136 121.592 244.23 121.65C244.363 121.65 244.49 121.703 244.584 121.796C244.677 121.89 244.73 122.017 244.73 122.15C244.73 122.283 244.677 122.41 244.584 122.504C244.49 122.597 244.363 122.65 244.23 122.65C243.299 122.593 242.367 122.763 241.516 123.144C240.664 123.526 239.918 124.107 239.34 124.84C239.054 125.215 238.858 125.651 238.768 126.114C238.678 126.577 238.696 127.055 238.82 127.51C238.866 127.633 238.861 127.77 238.806 127.89C238.752 128.009 238.653 128.103 238.53 128.15L238.36 128.18Z" fill="white"/>
</g>
<g opacity="0.2">
<path d="M256.23 154.5C256.167 154.502 256.104 154.49 256.045 154.466C255.986 154.442 255.934 154.406 255.89 154.36C255.843 154.314 255.806 154.26 255.781 154.2C255.756 154.14 255.743 154.075 255.743 154.01C255.743 153.945 255.756 153.88 255.781 153.82C255.806 153.76 255.843 153.706 255.89 153.66C258.078 151.204 260.698 149.17 263.62 147.66C263.681 147.634 263.747 147.62 263.813 147.619C263.879 147.619 263.945 147.632 264.007 147.657C264.068 147.682 264.124 147.719 264.171 147.766C264.218 147.813 264.255 147.869 264.28 147.93C264.306 147.99 264.32 148.055 264.32 148.121C264.321 148.186 264.308 148.252 264.283 148.312C264.257 148.373 264.22 148.428 264.174 148.474C264.127 148.52 264.071 148.556 264.01 148.58C261.223 150.032 258.717 151.969 256.61 154.3C256.565 154.359 256.508 154.407 256.442 154.442C256.376 154.476 256.304 154.496 256.23 154.5Z" fill="white"/>
</g>
<path d="M107.38 259.5C107.38 259.5 131.38 260.5 149.09 256.44C149.09 256.44 154.16 217.84 152.22 202.79C150.28 187.74 108.88 208.38 108.88 208.38L107.38 259.5Z" fill="#16A085"/>
<path opacity="0.5" d="M107.38 259.5C107.38 259.5 131.38 260.5 149.09 256.44C149.09 256.44 154.16 217.84 152.22 202.79C150.28 187.74 108.88 208.38 108.88 208.38L107.38 259.5Z" fill="white"/>
<path d="M177.21 357L183.73 355.58L182.31 340.08L175.79 341.49L177.21 357Z" fill="#E4897B"/>
<path d="M150.49 200.13C150.49 200.13 165 233.5 176.61 264.8C184.06 284.9 185.03 348.42 185.03 348.42L172.64 348.62C172.64 348.62 162.74 282.34 160.46 277.56C150.21 256.06 128.84 213.67 128.84 213.67L150.49 200.13Z" fill="#263238"/>
<g opacity="0.1">
<path d="M185 348.42L172.61 348.62C172.61 348.62 162.71 282.34 160.43 277.56C157.31 271.02 153.17 262.56 148.91 253.95C149.8 234.61 142.81 221.28 142.81 221.28C140.349 223.831 138.398 226.828 137.06 230.11C132.27 220.52 128.81 213.67 128.81 213.67L150.46 200.13C150.46 200.13 165 233.5 176.6 264.8C184.07 284.9 185 348.42 185 348.42Z" fill="white"/>
</g>
<path d="M98.17 355.99L104.49 358.11L111.19 344.05L104.86 341.94L98.17 355.99Z" fill="#E4897B"/>
<path d="M145.1 204.91C145.1 204.91 146.1 273.13 143.84 288.61C141.58 304.09 110.65 351.69 110.65 351.69L99.48 346.09C99.48 346.09 124.15 295.09 124.83 288.44C125.51 281.79 119.1 227.59 119.1 227.59L145.1 204.91Z" fill="#263238"/>
<path opacity="0.1" d="M119.09 227.59C119.09 227.59 119.33 229.59 119.72 232.98C120.24 237.48 121.02 244.33 121.81 251.74C123.46 267.12 125.2 284.83 124.81 288.44C124.14 295.07 99.46 346.09 99.46 346.09L110.63 351.69C110.63 351.69 141.51 304.09 143.81 288.61C146.11 273.13 145.08 204.91 145.08 204.91L119.09 227.59Z" fill="white"/>
<path d="M106.16 354.43L98 354.5C97.8671 354.501 97.7384 354.547 97.635 354.631C97.5315 354.714 97.4593 354.83 97.43 354.96L96.07 360.9C96.0434 361.046 96.0493 361.195 96.0875 361.338C96.1257 361.481 96.1951 361.614 96.2908 361.727C96.3864 361.84 96.5059 361.93 96.6407 361.991C96.7754 362.052 96.9221 362.082 97.07 362.08C99.69 362.08 101.6 361.87 104.9 361.86C106.9 361.86 113.04 362.06 115.84 362.05C118.64 362.04 119.03 359.27 117.89 359.05C112.76 357.94 108.89 356.4 107.26 354.92C106.968 354.624 106.575 354.449 106.16 354.43Z" fill="#263238"/>
<path d="M195.47 166.57L193.47 167.16C193.47 167.16 187.61 166.51 186.94 169.59L187.94 173.48L193.08 175.25C193.472 175.383 193.889 175.428 194.3 175.381C194.712 175.335 195.108 175.198 195.46 174.98L198.46 173.12C199.059 172.75 199.496 172.166 199.681 171.487C199.867 170.808 199.788 170.083 199.46 169.46L198.69 167.96C198.392 167.396 197.91 166.951 197.325 166.698C196.739 166.446 196.085 166.4 195.47 166.57Z" fill="#E4897B"/>
<path d="M184.56 169.55L187.32 168.4L188.77 173.79L186.07 174.67L184.56 169.55Z" fill="#16A085"/>
<path opacity="0.2" d="M184.56 169.55L187.32 168.4L188.77 173.79L186.07 174.67L184.56 169.55Z" fill="white"/>
<path d="M187.1 174.73C182.36 176.53 177.6 178.1 172.72 179.46C170.28 180.14 167.82 180.8 165.28 181.33C164.66 181.47 164.01 181.6 163.36 181.72C162.71 181.84 162.06 181.98 161.36 182.06L160.36 182.21L159.24 182.31L158.68 182.36C158.44 182.36 158.14 182.36 157.87 182.36C157.367 182.348 156.865 182.298 156.37 182.21C154.774 181.936 153.216 181.473 151.73 180.83C150.433 180.29 149.164 179.682 147.93 179.01C145.603 177.739 143.347 176.343 141.17 174.83C139.5 173.68 137.89 172.51 136.3 171.3C134.52 169.95 132.79 168.54 131.09 167.07C130.39 166.47 129.69 165.87 129 165.26L131.47 154.96C134.39 155.25 143.16 163.82 146.98 166.64C148.88 168.05 150.83 169.38 152.74 170.58C153.74 171.17 154.67 171.7 155.59 172.15C156.367 172.565 157.185 172.9 158.03 173.15C158.16 173.15 158.33 173.23 158.38 173.23H158.51H159.62L160.44 173.18C161 173.18 161.57 173.12 162.16 173.06L163.92 172.88C166.3 172.6 168.73 172.3 171.17 171.94C176.04 171.26 185.47 168.94 185.47 168.94L187.1 174.73Z" fill="#16A085"/>
<path opacity="0.7" d="M187.1 174.73C182.36 176.53 177.6 178.09 172.72 179.46C170.28 180.13 167.82 180.8 165.28 181.33C164.66 181.47 164.01 181.6 163.36 181.72C162.71 181.84 162.06 181.97 161.36 182.06L160.36 182.21L159.24 182.31L158.68 182.36C158.44 182.36 158.14 182.36 157.87 182.36C157.367 182.348 156.865 182.298 156.37 182.21C154.774 181.936 153.216 181.473 151.73 180.83C150.432 180.286 149.164 179.675 147.93 179L147.37 178.69C145.19 177.49 143.14 176.18 141.17 174.83C139.5 173.68 137.89 172.51 136.3 171.3L136.04 171.1C134.35 169.8 132.71 168.47 131.09 167.1C130.39 166.51 129.69 165.91 129 165.29L131.47 155C134.39 155.28 143.16 163.86 146.98 166.67C148.88 168.09 150.83 169.42 152.74 170.61C153.74 171.21 154.67 171.74 155.59 172.19C156.366 172.607 157.184 172.942 158.03 173.19C158.16 173.19 158.33 173.27 158.38 173.27H158.51H159.62L160.44 173.21C161 173.21 161.57 173.15 162.16 173.1L163.92 172.92C166.3 172.64 168.73 172.33 171.17 171.98C176.04 171.29 185.47 168.98 185.47 168.98L187.1 174.73Z" fill="white"/>
<path opacity="0.2" d="M147.34 178.68C145.16 177.48 143.11 176.17 141.14 174.82C139.47 173.67 137.86 172.5 136.27 171.29L136.01 171.09C135.073 168.73 134.657 166.196 134.79 163.66C134.79 163.66 144.59 170.23 147.34 178.68Z" fill="black"/>
<path d="M96.89 173.07C100.821 178.846 104.298 184.917 107.29 191.23C109.58 195.9 111.56 200.44 113.29 204.61C117.29 214.39 119.77 222.1 120.96 224.61L153.86 209.68C145.22 169.97 130.7 155.27 130.7 155.27C127.409 155.47 124.161 156.126 121.05 157.22C120.48 157.44 119.91 157.68 119.32 157.93C114.72 160.107 110.249 162.548 105.93 165.24C105.12 165.73 104.31 166.24 103.53 166.78C101.004 168.52 98.7638 170.642 96.89 173.07Z" fill="#16A085"/>
<path d="M119.16 165.38C117.227 166.361 115.106 166.915 112.941 167.003C110.775 167.091 108.616 166.711 106.61 165.89C107.75 163.15 106.45 159.07 104.61 155.39C103.605 153.386 102.463 151.455 101.19 149.61L112.87 153.1C113.26 155.38 113.87 157.51 115.25 158.71C115.831 159.178 116.513 159.504 117.242 159.662C117.971 159.82 118.727 159.806 119.45 159.62C121 160.72 123 163.58 119.16 165.38Z" fill="#E4897B"/>
<path d="M119.26 165.33C119.26 165.33 118.64 167.84 117.75 170.43C114.64 170.25 107.12 169.36 105.84 165.95C105.869 165.106 106.187 164.298 106.74 163.66C110.796 164.887 115.024 165.451 119.26 165.33Z" fill="#16A085"/>
<path d="M119.26 165.33C120.996 165.812 122.656 166.535 124.19 167.48C125.42 165.39 120.91 159.81 119.92 159.48C118.519 158.989 117.023 158.831 115.55 159.02C117.511 160.604 118.83 162.846 119.26 165.33Z" fill="#16A085"/>
<g opacity="0.2">
<path d="M119.26 165.33C119.26 165.33 118.64 167.84 117.75 170.43C114.64 170.25 107.12 169.36 105.84 165.95C105.869 165.106 106.187 164.298 106.74 163.66C110.796 164.887 115.024 165.451 119.26 165.33Z" fill="white"/>
<path d="M119.26 165.33C120.996 165.812 122.656 166.535 124.19 167.48C125.42 165.39 120.91 159.81 119.92 159.48C118.519 158.989 117.023 158.831 115.55 159.02C117.511 160.604 118.83 162.846 119.26 165.33Z" fill="white"/>
</g>
<path opacity="0.2" d="M115.24 158.71C111.456 158.602 107.774 157.453 104.6 155.39C103.595 153.386 102.453 151.455 101.18 149.61L112.86 153.1C113.25 155.38 113.85 157.5 115.24 158.71Z" fill="black"/>
<path d="M114.63 133.28C116.36 135.28 118 140.28 114.05 140.13C110.1 139.98 111.66 129.78 114.63 133.28Z" fill="#263238"/>
<path d="M99 143.6C101.19 149.8 102.16 153.53 106.26 155.83C112.44 159.28 119.39 154.08 119.09 147.34C118.82 141.28 115.29 132.17 108.41 131.49C106.886 131.339 105.348 131.576 103.94 132.181C102.532 132.785 101.301 133.737 100.361 134.947C99.4212 136.156 98.8033 137.585 98.5653 139.098C98.3272 140.611 98.4768 142.16 99 143.6Z" fill="#E4897B"/>
<path d="M101.89 138.5L99 131.79C99 131.79 91.6 134.29 93.47 137.79C90.32 141.44 94.82 146.79 101.47 147.61C103.41 144.03 100.69 138.53 100.69 138.53C101.07 138.57 101.48 138.56 101.89 138.5Z" fill="#263238"/>
<path d="M98.11 149.55C98.5671 150.234 99.1566 150.818 99.8436 151.27C100.531 151.722 101.301 152.031 102.11 152.18C104.26 152.58 105.11 150.6 104.41 148.66C103.74 146.92 101.81 144.66 99.73 145.1C99.2725 145.207 98.8489 145.427 98.4975 145.739C98.1461 146.051 97.8779 146.446 97.7171 146.887C97.5564 147.329 97.5081 147.803 97.5767 148.268C97.6453 148.733 97.8286 149.174 98.11 149.55Z" fill="#E4897B"/>
<path d="M109.1 142.5C109.25 143.02 109.64 143.35 109.97 143.25C110.3 143.15 110.46 142.66 110.31 142.14C110.16 141.62 109.77 141.3 109.44 141.39C109.11 141.48 109 142.02 109.1 142.5Z" fill="#263238"/>
<path d="M114.89 140.82C115.04 141.33 115.43 141.66 115.77 141.57C116.11 141.48 116.25 140.97 116.11 140.46C115.97 139.95 115.57 139.61 115.24 139.71C114.91 139.81 114.75 140.3 114.89 140.82Z" fill="#263238"/>
<path d="M113.12 141.62C114.188 142.95 115.437 144.125 116.83 145.11C116.545 145.452 116.191 145.73 115.791 145.926C115.391 146.123 114.955 146.233 114.51 146.25L113.12 141.62Z" fill="#DE5753"/>
<path d="M106.61 141.05C106.666 141.05 106.722 141.035 106.771 141.007C106.82 140.979 106.861 140.938 106.89 140.89C107.072 140.539 107.335 140.235 107.656 140.004C107.978 139.773 108.349 139.621 108.74 139.56C108.781 139.557 108.821 139.547 108.857 139.529C108.894 139.511 108.927 139.486 108.954 139.455C108.98 139.425 109.001 139.389 109.014 139.35C109.027 139.312 109.033 139.271 109.03 139.23C109.029 139.189 109.019 139.148 109.002 139.111C108.984 139.074 108.959 139.04 108.928 139.013C108.897 138.986 108.861 138.965 108.822 138.953C108.782 138.94 108.741 138.936 108.7 138.94C108.204 139.003 107.73 139.186 107.319 139.471C106.908 139.757 106.572 140.137 106.34 140.58C106.319 140.616 106.305 140.656 106.3 140.697C106.294 140.738 106.297 140.78 106.309 140.821C106.32 140.861 106.339 140.898 106.365 140.931C106.391 140.963 106.423 140.99 106.46 141.01C106.505 141.037 106.557 141.051 106.61 141.05Z" fill="#263238"/>
<path d="M117 137.5C117.052 137.466 117.094 137.417 117.12 137.36C117.15 137.282 117.147 137.195 117.114 137.118C117.08 137.042 117.018 136.981 116.94 136.95C116.484 136.755 115.989 136.672 115.494 136.708C115 136.745 114.522 136.9 114.1 137.16C114.031 137.206 113.983 137.278 113.967 137.36C113.951 137.441 113.969 137.526 114.015 137.595C114.061 137.664 114.133 137.712 114.215 137.728C114.296 137.744 114.381 137.726 114.45 137.68C114.786 137.472 115.167 137.349 115.561 137.323C115.955 137.297 116.35 137.368 116.71 137.53C116.757 137.55 116.808 137.558 116.859 137.553C116.91 137.547 116.958 137.529 117 137.5Z" fill="#263238"/>
<path d="M99.76 142.39C99.76 142.39 103.32 139.07 104.24 135.78C104.24 135.78 108.5 135.17 109.95 136.4C110.187 135.936 110.241 135.401 110.102 134.899C109.963 134.397 109.641 133.966 109.2 133.69C109.2 133.69 112.33 133.08 113.73 134.8C114.111 134.378 114.344 133.842 114.392 133.275C114.441 132.709 114.303 132.141 114 131.66C114.58 131.717 115.136 131.916 115.619 132.241C116.103 132.566 116.498 133.005 116.77 133.52C116.77 133.52 117.15 125.52 105.86 128.09C106.536 127.485 107.306 126.996 108.14 126.64C108.14 126.64 99.58 126.77 94.92 131.93C90.26 137.09 93.51 141.83 99.76 142.39Z" fill="#263238"/>
<path d="M112.25 149.5C111.877 149.506 111.505 149.469 111.14 149.39C111.108 149.384 111.078 149.372 111.051 149.354C111.024 149.336 111.001 149.313 110.983 149.286C110.965 149.258 110.953 149.228 110.948 149.196C110.942 149.164 110.943 149.132 110.95 149.1C110.957 149.068 110.971 149.037 110.989 149.01C111.008 148.983 111.033 148.96 111.06 148.942C111.088 148.925 111.119 148.913 111.152 148.907C111.185 148.902 111.218 148.903 111.25 148.91C112.479 149.116 113.742 148.931 114.86 148.38C114.92 148.351 114.989 148.347 115.052 148.367C115.115 148.388 115.168 148.432 115.2 148.49C115.228 148.549 115.232 148.616 115.212 148.677C115.191 148.739 115.148 148.79 115.09 148.82C114.212 149.272 113.238 149.505 112.25 149.5Z" fill="#263238"/>
<path d="M118.04 217L152.74 204.91L154.91 213.57L119.6 231.96L118.04 217Z" fill="#263238"/>
<path opacity="0.1" d="M118.04 217L152.74 204.91L154.91 213.57L119.6 231.96L118.04 217Z" fill="white"/>
<path d="M105.13 165.7C105.13 165.7 117.76 187.46 116.83 210.78C115.9 234.1 111.26 265.59 111.26 265.59H102.18C102.18 265.59 108.83 191.72 95.68 173.16C95.68 173.16 98.51 169.8 105.13 165.7Z" fill="#16A085"/>
<path opacity="0.7" d="M116.87 209.01C116.87 209.6 116.87 210.19 116.87 210.78C116.81 212.22 116.74 213.7 116.65 215.2C115.37 237.88 111.3 265.59 111.3 265.59H102.22C102.22 265.59 105.22 231.94 103.22 204.36C102.92 200.45 102.53 196.67 102 193.12C100.75 184.59 98.78 177.42 95.76 173.12C95.76 173.12 98.59 169.75 105.21 165.65C110.145 174.746 113.662 184.542 115.64 194.7C115.64 194.84 115.64 194.98 115.72 195.14C116.547 199.716 116.932 204.361 116.87 209.01Z" fill="white"/>
<path d="M105.83 164.79C105.83 164.79 113.83 179.24 115.7 195.56C115.7 195.56 109.7 185.4 105.83 180.21L108.21 177.08L102.87 174.27L104.08 166.36L105.83 164.79Z" fill="#16A085"/>
<path opacity="0.8" d="M105.83 164.79C105.83 164.79 113.83 179.24 115.7 195.56C115.7 195.56 109.7 185.4 105.83 180.21L108.21 177.08L102.87 174.27L104.08 166.36L105.83 164.79Z" fill="white"/>
<path opacity="0.2" d="M116.87 209.01C116.87 209.6 116.87 210.19 116.87 210.78C116.81 212.22 116.74 213.7 116.65 215.2C108.93 216.64 105.65 212.04 103.18 204.36C102.88 200.45 102.49 196.67 101.96 193.12L110.57 188.95C110.57 188.95 113.57 194.18 114.49 194.66C114.847 194.782 115.229 194.81 115.6 194.74C115.6 194.88 115.6 195.02 115.68 195.18C116.517 199.741 116.916 204.373 116.87 209.01Z" fill="black"/>
<path d="M121 157.19C135.699 169.929 146.659 186.424 152.71 204.91C152.71 204.91 145.9 164.91 131.41 154.91C131.44 154.95 124 155.37 121 157.19Z" fill="#16A085"/>
<path opacity="0.7" d="M121 157.19C135.699 169.929 146.659 186.424 152.71 204.91C152.71 204.91 145.9 164.91 131.41 154.91C131.44 154.95 124 155.37 121 157.19Z" fill="white"/>
<path d="M118.82 158.12C118.82 158.12 133 167.33 141 180.21L134.32 164.79L131.32 165.27L132.91 161.16L121.91 156.72C121.327 156.732 120.753 156.863 120.221 157.103C119.69 157.344 119.214 157.69 118.82 158.12Z" fill="#16A085"/>
<path opacity="0.8" d="M118.82 158.12C118.82 158.12 133 167.33 141 180.21L134.32 164.79L131.32 165.27L132.91 161.16L121.91 156.72C121.327 156.732 120.753 156.863 120.221 157.103C119.69 157.344 119.214 157.69 118.82 158.12Z" fill="white"/>
<path d="M193.478 159.9L198.034 169.802L214.877 162.052L210.32 152.15L193.478 159.9Z" fill="#263238"/>
<path opacity="0.1" d="M193.478 159.9L198.034 169.802L214.877 162.052L210.32 152.15L193.478 159.9Z" fill="white"/>
<path opacity="0.3" d="M214.58 159.717L197.699 167.508L198.745 169.774L215.626 161.983L214.58 159.717Z" fill="black"/>
<path d="M228.7 111.43C222.165 114.443 216.671 119.325 212.91 125.459C209.15 131.594 207.292 138.706 207.573 145.896C207.853 153.086 210.259 160.031 214.486 165.854C218.713 171.677 224.571 176.117 231.321 178.611C238.07 181.105 245.407 181.543 252.405 179.868C259.403 178.193 265.747 174.481 270.636 169.202C275.525 163.922 278.739 157.312 279.872 150.206C281.004 143.1 280.005 135.818 277 129.28C275.003 124.935 272.169 121.026 268.66 117.776C265.151 114.527 261.036 112.001 256.55 110.344C252.064 108.686 247.295 107.928 242.517 108.115C237.738 108.301 233.043 109.428 228.7 111.43ZM230.5 115.35C236.263 112.695 242.684 111.809 248.951 112.804C255.218 113.799 261.049 116.63 265.707 120.939C270.364 125.248 273.64 130.841 275.118 137.012C276.597 143.182 276.213 149.653 274.014 155.605C271.815 161.557 267.9 166.723 262.765 170.45C257.629 174.177 251.504 176.298 245.164 176.543C238.823 176.789 232.552 175.149 227.144 171.83C221.736 168.512 217.433 163.664 214.78 157.9C211.223 150.173 210.882 141.349 213.83 133.37C216.777 125.391 222.774 118.909 230.5 115.35Z" fill="#263238"/>
<path opacity="0.1" d="M228.7 111.43C222.165 114.443 216.671 119.325 212.91 125.459C209.15 131.594 207.292 138.706 207.573 145.896C207.853 153.086 210.259 160.031 214.486 165.854C218.713 171.677 224.571 176.117 231.321 178.611C238.07 181.105 245.407 181.543 252.405 179.868C259.403 178.193 265.747 174.481 270.636 169.202C275.525 163.922 278.739 157.312 279.872 150.206C281.004 143.1 280.005 135.818 277 129.28C275.003 124.935 272.169 121.026 268.66 117.776C265.151 114.527 261.036 112.001 256.55 110.344C252.064 108.686 247.295 107.928 242.517 108.115C237.738 108.301 233.043 109.428 228.7 111.43ZM230.5 115.35C236.263 112.695 242.684 111.809 248.951 112.804C255.218 113.799 261.049 116.63 265.707 120.939C270.364 125.248 273.64 130.841 275.118 137.012C276.597 143.182 276.213 149.653 274.014 155.605C271.815 161.557 267.9 166.723 262.765 170.45C257.629 174.177 251.504 176.298 245.164 176.543C238.823 176.789 232.552 175.149 227.144 171.83C221.736 168.512 217.433 163.664 214.78 157.9C211.223 150.173 210.882 141.349 213.83 133.37C216.777 125.391 222.774 118.909 230.5 115.35Z" fill="white"/>
<path d="M227.32 108.43C220.782 111.439 215.283 116.32 211.518 122.454C207.754 128.588 205.893 135.701 206.172 142.893C206.45 150.085 208.854 157.033 213.081 162.859C217.308 168.684 223.168 173.125 229.919 175.62C236.67 178.115 244.009 178.552 251.009 176.876C258.008 175.2 264.354 171.486 269.242 166.204C274.131 160.921 277.343 154.308 278.473 147.2C279.603 140.091 278.6 132.808 275.59 126.27C273.593 121.928 270.76 118.023 267.253 114.776C263.746 111.53 259.634 109.006 255.151 107.35C250.668 105.693 245.903 104.936 241.128 105.121C236.353 105.306 231.661 106.431 227.32 108.43ZM229.12 112.35C234.882 109.7 241.3 108.818 247.564 109.815C253.827 110.813 259.654 113.645 264.308 117.954C268.962 122.263 272.233 127.854 273.709 134.023C275.185 140.191 274.799 146.658 272.6 152.607C270.401 158.555 266.488 163.718 261.354 167.443C256.221 171.168 250.099 173.287 243.761 173.532C237.424 173.778 231.156 172.139 225.75 168.822C220.344 165.506 216.043 160.661 213.39 154.9C209.834 147.172 209.494 138.347 212.444 130.368C215.393 122.388 221.392 115.907 229.12 112.35Z" fill="#263238"/>
<path opacity="0.3" d="M227.32 108.43C220.782 111.439 215.283 116.32 211.518 122.454C207.754 128.588 205.893 135.701 206.172 142.893C206.45 150.085 208.854 157.033 213.081 162.859C217.308 168.684 223.168 173.125 229.919 175.62C236.67 178.115 244.009 178.552 251.009 176.876C258.008 175.2 264.354 171.486 269.242 166.204C274.131 160.921 277.343 154.308 278.473 147.2C279.603 140.091 278.6 132.808 275.59 126.27C273.593 121.928 270.76 118.023 267.253 114.776C263.746 111.53 259.634 109.006 255.151 107.35C250.668 105.693 245.903 104.936 241.128 105.121C236.353 105.306 231.661 106.431 227.32 108.43ZM229.12 112.35C234.882 109.7 241.3 108.818 247.564 109.815C253.827 110.813 259.654 113.645 264.308 117.954C268.962 122.263 272.233 127.854 273.709 134.023C275.185 140.191 274.799 146.658 272.6 152.607C270.401 158.555 266.488 163.718 261.354 167.443C256.221 171.168 250.099 173.287 243.761 173.532C237.424 173.778 231.156 172.139 225.75 168.822C220.344 165.506 216.043 160.661 213.39 154.9C209.834 147.172 209.494 138.347 212.444 130.368C215.393 122.388 221.392 115.907 229.12 112.35Z" fill="white"/>
<path d="M140.14 190.43C140.538 191.298 141.103 192.079 141.803 192.729C142.503 193.378 143.324 193.883 144.219 194.215C145.115 194.547 146.067 194.698 147.021 194.661C147.975 194.625 148.913 194.4 149.78 194L199.41 171.16C199.693 171.03 199.948 170.845 200.16 170.616C200.372 170.387 200.536 170.118 200.644 169.826C200.752 169.533 200.801 169.222 200.788 168.911C200.775 168.599 200.701 168.293 200.57 168.01L196.47 159.11C196.209 158.539 195.731 158.094 195.142 157.875C194.553 157.656 193.902 157.679 193.33 157.94L143.7 180.79C142.833 181.189 142.053 181.754 141.404 182.455C140.756 183.155 140.252 183.976 139.921 184.872C139.59 185.767 139.439 186.719 139.477 187.673C139.515 188.626 139.74 189.563 140.14 190.43Z" fill="#263238"/>
<path opacity="0.3" d="M140.14 190.43C140.538 191.298 141.103 192.079 141.803 192.729C142.503 193.378 143.324 193.883 144.219 194.215C145.115 194.547 146.067 194.698 147.021 194.661C147.975 194.625 148.913 194.4 149.78 194L199.41 171.16C199.693 171.03 199.948 170.845 200.16 170.616C200.372 170.387 200.536 170.118 200.644 169.826C200.752 169.533 200.801 169.222 200.788 168.911C200.775 168.599 200.701 168.293 200.57 168.01L196.47 159.11C196.209 158.539 195.731 158.094 195.142 157.875C194.553 157.656 193.902 157.679 193.33 157.94L143.7 180.79C142.833 181.189 142.053 181.754 141.404 182.455C140.756 183.155 140.252 183.976 139.921 184.872C139.59 185.767 139.439 186.719 139.477 187.673C139.515 188.626 139.74 189.563 140.14 190.43Z" fill="white"/>
<path opacity="0.3" d="M139.71 189.26C139.822 189.663 139.962 190.057 140.13 190.44C140.939 192.19 142.41 193.548 144.219 194.216C146.028 194.883 148.028 194.806 149.78 194L199.41 171.15C199.693 171.022 199.947 170.839 200.159 170.612C200.37 170.385 200.534 170.118 200.642 169.827C200.75 169.536 200.799 169.226 200.787 168.916C200.774 168.606 200.701 168.301 200.57 168.02L199.57 165.76C199.832 166.329 199.859 166.979 199.643 167.567C199.428 168.156 198.988 168.635 198.42 168.9L148.79 191.74C147.228 192.47 145.458 192.622 143.794 192.168C142.131 191.714 140.684 190.683 139.71 189.26Z" fill="black"/>
<path opacity="0.3" d="M144.65 184.42C144.277 184.67 143.982 185.022 143.802 185.434C143.622 185.846 143.563 186.3 143.632 186.745C143.702 187.189 143.897 187.604 144.194 187.941C144.491 188.278 144.879 188.523 145.311 188.648C145.743 188.772 146.201 188.771 146.632 188.644C147.063 188.516 147.449 188.269 147.744 187.93C148.04 187.59 148.232 187.174 148.298 186.73C148.365 186.285 148.303 185.831 148.12 185.42C147.789 184.831 147.24 184.395 146.59 184.208C145.941 184.021 145.244 184.097 144.65 184.42Z" fill="black"/>
<path opacity="0.4" d="M250.61 120.84C247.74 123.43 248.16 128.57 251.55 132.33C254.94 136.09 260.01 137.03 262.88 134.44C265.75 131.85 265.33 126.71 261.94 122.95C258.55 119.19 253.48 118.25 250.61 120.84Z" fill="white"/>
<path opacity="0.4" d="M247.37 134.25C246.996 134.437 246.689 134.737 246.494 135.108C246.299 135.478 246.226 135.9 246.283 136.315C246.341 136.729 246.528 137.115 246.816 137.418C247.105 137.722 247.481 137.926 247.893 138.004C248.304 138.082 248.729 138.029 249.109 137.852C249.488 137.675 249.803 137.384 250.008 137.019C250.213 136.654 250.298 136.234 250.252 135.818C250.206 135.402 250.03 135.011 249.75 134.7C249.486 134.335 249.093 134.084 248.65 134C248.207 133.917 247.749 134.006 247.37 134.25Z" fill="white"/>
<path d="M144.24 187.23C144.24 187.23 138.24 186.1 137.82 189.23L139.13 192.99L145 194.47C145.471 194.593 145.97 194.547 146.41 194.34L149 193.1C149.327 192.945 149.608 192.71 149.818 192.416C150.028 192.122 150.16 191.779 150.2 191.42L150.48 188.82C150.518 188.492 150.479 188.159 150.366 187.849C150.252 187.539 150.067 187.26 149.826 187.034C149.584 186.808 149.294 186.642 148.976 186.55C148.659 186.457 148.325 186.44 148 186.5L144.24 187.23Z" fill="#E4897B"/>
<path d="M138.94 194.63L140.62 193.77L137.47 188.9L135.79 190.04L138.94 194.63Z" fill="#16A085"/>
<path opacity="0.2" d="M138.94 194.63L140.62 193.77L137.47 188.9L135.79 190.04L138.94 194.63Z" fill="white"/>
<path d="M95.68 173.16C93.88 176.44 104.35 209.55 108.6 212.98C113.88 217.23 140.6 195.41 140.6 195.41L135.92 189.32C135.92 189.32 114.79 201.44 113.92 200.82C113.05 200.2 109.71 185.19 109.71 185.19C109.71 185.19 106.06 179.58 102.18 176.68C100.251 175.113 98.0466 173.919 95.68 173.16Z" fill="#16A085"/>
<path opacity="0.7" d="M95.68 173.16C93.88 176.44 104.35 209.55 108.6 212.98C113.88 217.23 140.6 195.41 140.6 195.41L135.92 189.32C135.92 189.32 114.79 201.44 113.92 200.82C113.05 200.2 109.71 185.19 109.71 185.19C109.71 185.19 106.06 179.58 102.18 176.68C100.251 175.113 98.0466 173.919 95.68 173.16Z" fill="white"/>
<path d="M184.16 354.43L176 354.5C175.867 354.499 175.737 354.545 175.633 354.629C175.529 354.712 175.458 354.829 175.43 354.96L174.06 360.9C174.033 361.046 174.039 361.195 174.077 361.338C174.116 361.481 174.185 361.614 174.281 361.727C174.376 361.84 174.496 361.93 174.631 361.991C174.765 362.052 174.912 362.082 175.06 362.08C177.68 362.08 179.59 361.87 182.89 361.86C184.89 361.86 191.03 362.06 193.83 362.05C196.63 362.04 197.02 359.27 195.83 359.05C190.7 357.94 186.83 356.4 185.2 354.92C184.924 354.636 184.555 354.462 184.16 354.43Z" fill="#263238"/>
<defs>
<filter id="filter0_f_1_166" x="233" y="132" width="36" height="38" filterUnits="userSpaceOnUse" color-interpolation-filters="sRGB">
<feFlood flood-opacity="0" result="BackgroundImageFix"/>
<feBlend mode="normal" in="SourceGraphic" in2="BackgroundImageFix" result="shape"/>
<feGaussianBlur stdDeviation="2" result="effect1_foregroundBlur_1_166"/>
</filter>
</defs>
</svg>
